<svg xmlns="http://www.w3.org/2000/svg" width="375" viewBox="0 0 375 375" height="375" version="1.0"><defs><clipPath id="a"><path d="M 136.96875 112.492188 L 252.46875 112.492188 L 252.46875 200.921875 L 136.96875 200.921875 Z M 136.96875 112.492188"/></clipPath></defs><g><g><g><path d="M 19.671875 -21.234375 C 19.671875 -18.847656 19.492188 -17.175781 19.140625 -16.21875 C 18.359375 -14.15625 17.34375 -12.753906 16.09375 -12.015625 C 14.84375 -11.273438 12.921875 -10.832031 10.328125 -10.6875 L 10.328125 -1.96875 C 10.328125 -1.320312 10.117188 -0.742188 9.703125 -0.234375 C 9.285156 0.265625 8.769531 0.578125 8.15625 0.703125 C 7.488281 1.191406 6.863281 1.4375 6.28125 1.4375 C 5.03125 1.4375 4.035156 0.675781 3.296875 -0.84375 C 2.554688 -2.375 2.1875 -4.039062 2.1875 -5.84375 L 2.1875 -16.140625 C 2.1875 -18.804688 2.617188 -22.945312 3.484375 -28.5625 C 3.660156 -29.46875 3.863281 -30.148438 4.09375 -30.609375 L 4.28125 -30.921875 C 4.738281 -31.847656 5.535156 -32.3125 6.671875 -32.3125 C 7.109375 -32.3125 7.515625 -32.210938 7.890625 -32.015625 L 8.15625 -31.828125 C 8.382812 -31.890625 8.554688 -31.921875 8.671875 -31.921875 C 9.398438 -32.003906 10.34375 -31.921875 11.5 -31.671875 C 12.664062 -31.429688 13.660156 -31.050781 14.484375 -30.53125 C 16.109375 -29.539062 17.363281 -28.207031 18.25 -26.53125 C 19.132812 -24.863281 19.609375 -23.097656 19.671875 -21.234375 Z M 10.203125 -16.390625 C 11.109375 -16.390625 11.847656 -16.523438 12.421875 -16.796875 C 13.003906 -17.078125 13.425781 -17.476562 13.6875 -18 C 13.945312 -18.53125 14.113281 -19.023438 14.1875 -19.484375 C 14.257812 -19.953125 14.296875 -20.492188 14.296875 -21.109375 C 14.296875 -22.242188 13.960938 -23.222656 13.296875 -24.046875 C 12.628906 -24.878906 11.46875 -25.296875 9.8125 -25.296875 C 9.8125 -21.453125 9.941406 -18.484375 10.203125 -16.390625 Z M 10.203125 -16.390625" transform="translate(46.176 240.204)"/></g></g></g><g><g><g><path d="M 17.1875 -21.234375 C 18.320312 -20.597656 19.113281 -19.941406 19.5625 -19.265625 C 20.007812 -18.597656 20.347656 -17.414062 20.578125 -15.71875 C 20.816406 -14.019531 20.9375 -11.320312 20.9375 -7.625 C 20.9375 -7.164062 20.925781 -6.359375 20.90625 -5.203125 C 20.894531 -4.054688 20.890625 -3.148438 20.890625 -2.484375 C 20.890625 -1.734375 20.632812 -1.09375 20.125 -0.5625 C 19.613281 -0.0390625 18.984375 0.21875 18.234375 0.21875 C 17.441406 0.21875 16.710938 -0.046875 16.046875 -0.578125 C 15.378906 -1.117188 15.0625 -1.753906 15.09375 -2.484375 L 15.265625 -13.171875 C 15.296875 -14.160156 14.9375 -14.953125 14.1875 -15.546875 C 13.445312 -16.140625 12.5 -16.4375 11.34375 -16.4375 C 11.132812 -16.4375 10.796875 -16.410156 10.328125 -16.359375 C 9.953125 -9.171875 9.765625 -4.984375 9.765625 -3.796875 L 9.765625 -2.140625 C 9.765625 -1.410156 9.492188 -0.785156 8.953125 -0.265625 C 8.421875 0.253906 7.789062 0.515625 7.0625 0.515625 C 6.457031 0.515625 5.910156 0.328125 5.421875 -0.046875 C 4.941406 -0.421875 4.628906 -0.898438 4.484375 -1.484375 C 3.816406 -1.597656 3.265625 -1.898438 2.828125 -2.390625 C 2.398438 -2.890625 2.1875 -3.472656 2.1875 -4.140625 C 2.1875 -4.398438 2.195312 -4.75 2.21875 -5.1875 C 2.25 -5.625 2.28125 -6.015625 2.3125 -6.359375 L 2.359375 -6.84375 L 2.359375 -14.078125 C 2.359375 -15.046875 2.488281 -17.28125 2.75 -20.78125 C 3.007812 -24.28125 3.238281 -26.847656 3.4375 -28.484375 C 3.5625 -29.117188 3.875 -29.65625 4.375 -30.09375 C 4.882812 -30.53125 5.476562 -30.75 6.15625 -30.75 C 6.53125 -30.75 6.890625 -30.660156 7.234375 -30.484375 C 7.492188 -30.566406 7.859375 -30.609375 8.328125 -30.609375 C 9.929688 -30.578125 10.734375 -29.5625 10.734375 -27.5625 L 10.640625 -22.71875 C 11.660156 -22.800781 12.800781 -22.691406 14.0625 -22.390625 C 15.332031 -22.085938 16.375 -21.703125 17.1875 -21.234375 Z M 17.1875 -21.234375" transform="translate(72.384 240.204)"/></g></g></g><g><g><g><path d="M 9.765625 -0.609375 C 10.347656 -0.203125 11.117188 0 12.078125 0 C 14.253906 0 15.929688 -0.960938 17.109375 -2.890625 C 18.296875 -4.828125 18.914062 -7.484375 18.96875 -10.859375 C 19.144531 -13.066406 19.234375 -14.753906 19.234375 -15.921875 C 19.234375 -16.878906 19.21875 -17.503906 19.1875 -17.796875 C 19.039062 -19.648438 18.195312 -21.164062 16.65625 -22.34375 C 15.113281 -23.519531 13.296875 -24.109375 11.203125 -24.109375 C 8.117188 -24.109375 6.054688 -23.019531 5.015625 -20.84375 C 4.253906 -19.65625 3.59375 -18.242188 3.03125 -16.609375 C 2.46875 -14.984375 2.1875 -13.632812 2.1875 -12.5625 C 2.1875 -9.675781 3.070312 -6.882812 4.84375 -4.1875 C 5.300781 -3.3125 6.03125 -2.476562 7.03125 -1.6875 C 8.039062 -0.90625 8.953125 -0.546875 9.765625 -0.609375 Z M 11.46875 -18.703125 C 12.519531 -18.703125 13.304688 -18.28125 13.828125 -17.4375 C 13.859375 -17.125 13.875 -16.125 13.875 -14.4375 C 13.875 -10.21875 13.421875 -7.320312 12.515625 -5.75 C 11.265625 -6.65625 10.582031 -7.96875 10.46875 -9.6875 C 10.40625 -11.25 10.375 -12.65625 10.375 -13.90625 C 10.375 -17.28125 10.695312 -18.910156 11.34375 -18.796875 C 11.425781 -18.734375 11.46875 -18.703125 11.46875 -18.703125 Z M 11.46875 -18.703125" transform="translate(99.856 240.204)"/></g></g></g><g><g><g><path d="M 21.40625 -25.421875 C 21.40625 -27.222656 20.546875 -28.804688 18.828125 -30.171875 C 17.117188 -31.546875 15.25 -32.234375 13.21875 -32.234375 C 12.632812 -32.898438 11.757812 -33.234375 10.59375 -33.234375 C 9.144531 -33.234375 7.859375 -32.582031 6.734375 -31.28125 C 5.617188 -29.988281 4.738281 -28.300781 4.09375 -26.21875 C 3.457031 -24.144531 2.976562 -21.9375 2.65625 -19.59375 C 2.34375 -17.257812 2.1875 -14.882812 2.1875 -12.46875 C 2.1875 -8.957031 3.4375 -5.78125 5.9375 -2.9375 C 8.4375 -0.101562 11.269531 1.3125 14.4375 1.3125 C 15.25 1.3125 15.890625 1.117188 16.359375 0.734375 C 16.816406 0.796875 17.164062 0.828125 17.40625 0.828125 C 18.414062 0.828125 19.257812 0.570312 19.9375 0.0625 C 20.625 -0.445312 20.96875 -1.164062 20.96875 -2.09375 C 20.96875 -2.851562 20.691406 -3.476562 20.140625 -3.96875 C 19.585938 -4.457031 18.976562 -4.703125 18.3125 -4.703125 C 18.195312 -4.703125 18.015625 -4.679688 17.765625 -4.640625 C 17.523438 -4.597656 17.316406 -4.578125 17.140625 -4.578125 C 15.859375 -4.578125 14.613281 -5.367188 13.40625 -6.953125 C 12.195312 -8.535156 11.59375 -10.097656 11.59375 -11.640625 C 11.59375 -15.859375 11.6875 -18.820312 11.875 -20.53125 C 12.070312 -22.25 12.519531 -23.878906 13.21875 -25.421875 C 13.59375 -26.296875 13.953125 -26.734375 14.296875 -26.734375 C 14.617188 -26.734375 15.203125 -26.269531 16.046875 -25.34375 C 16.078125 -24.644531 16.351562 -24.03125 16.875 -23.5 C 17.394531 -22.976562 18.019531 -22.71875 18.75 -22.71875 C 19.476562 -22.71875 20.101562 -22.976562 20.625 -23.5 C 21.144531 -24.03125 21.40625 -24.671875 21.40625 -25.421875 Z M 21.40625 -25.421875" transform="translate(125.628 240.204)"/></g></g></g><g><g><g><path d="M 22.28125 -4.53125 C 22.375 -3.894531 22.421875 -3.414062 22.421875 -3.09375 L 22.421875 -2.265625 C 22.421875 -1.515625 22.164062 -0.875 21.65625 -0.34375 C 21.144531 0.175781 20.507812 0.4375 19.75 0.4375 C 19 0.4375 18.359375 0.175781 17.828125 -0.34375 C 17.304688 -0.875 17.046875 -1.515625 17.046875 -2.265625 C 17.046875 -2.617188 16.96875 -3.554688 16.8125 -5.078125 C 16.65625 -6.609375 16.5625 -7.617188 16.53125 -8.109375 C 15.332031 -5.554688 14.109375 -3.566406 12.859375 -2.140625 C 11.609375 -0.710938 10.097656 0 8.328125 0 C 6.035156 0 4.4375 -1.035156 3.53125 -3.109375 C 2.632812 -5.191406 2.1875 -8.285156 2.1875 -12.390625 C 2.1875 -13.691406 2.289062 -15.34375 2.5 -17.34375 C 2.71875 -19.351562 2.828125 -20.695312 2.828125 -21.375 C 2.828125 -22.1875 2.992188 -22.804688 3.328125 -23.234375 C 3.671875 -23.671875 4.117188 -23.890625 4.671875 -23.890625 C 4.898438 -23.890625 5.144531 -23.847656 5.40625 -23.765625 C 5.957031 -24.265625 6.566406 -24.515625 7.234375 -24.515625 C 7.960938 -24.515625 8.585938 -24.242188 9.109375 -23.703125 C 9.640625 -23.160156 9.90625 -22.53125 9.90625 -21.8125 C 9.90625 -17.769531 10.109375 -13 10.515625 -7.5 C 12.054688 -8.957031 13.332031 -11 14.34375 -13.625 C 15.363281 -16.257812 15.875 -18.914062 15.875 -21.59375 C 15.875 -22.3125 16.140625 -22.929688 16.671875 -23.453125 C 17.210938 -23.984375 17.847656 -24.25 18.578125 -24.25 C 19.304688 -24.25 19.929688 -23.984375 20.453125 -23.453125 C 20.972656 -22.929688 21.234375 -22.3125 21.234375 -21.59375 L 21.234375 -20.96875 C 21.617188 -18.59375 21.8125 -16.578125 21.8125 -14.921875 C 21.8125 -11.984375 21.820312 -10.175781 21.84375 -9.5 C 21.875 -7.789062 22.019531 -6.132812 22.28125 -4.53125 Z M 22.28125 -4.53125" transform="translate(153.58 240.204)"/></g></g></g><g><g><g><path d="M 20.359375 -22.015625 C 20.484375 -21.703125 20.546875 -21.351562 20.546875 -20.96875 C 20.546875 -19.695312 19.929688 -18.84375 18.703125 -18.40625 C 16.003906 -17.5 13.039062 -14.894531 9.8125 -10.59375 C 9.601562 -7.570312 9.09375 -4.535156 8.28125 -1.484375 C 8.132812 -0.867188 7.804688 -0.375 7.296875 0 C 6.796875 0.375 6.269531 0.5625 5.71875 0.5625 C 5.039062 0.5625 4.445312 0.335938 3.9375 -0.109375 C 3.4375 -0.554688 3.128906 -1.113281 3.015625 -1.78125 C 2.484375 -2.507812 2.21875 -3.660156 2.21875 -5.234375 C 2.21875 -6.160156 2.25 -7.800781 2.3125 -10.15625 C 2.375 -12.507812 2.40625 -13.734375 2.40625 -13.828125 L 2.21875 -20.9375 C 2.164062 -22.007812 2.347656 -22.882812 2.765625 -23.5625 C 3.191406 -24.25 3.8125 -24.59375 4.625 -24.59375 C 5.40625 -24.59375 5.925781 -24.578125 6.1875 -24.546875 C 7 -24.523438 7.695312 -24.351562 8.28125 -24.03125 C 9.300781 -23.476562 9.8125 -21.921875 9.8125 -19.359375 C 11.40625 -21.804688 13.132812 -23.332031 15 -23.9375 C 15.695312 -24.175781 16.335938 -24.296875 16.921875 -24.296875 C 17.796875 -24.296875 18.550781 -24.097656 19.1875 -23.703125 C 19.820312 -23.304688 20.210938 -22.742188 20.359375 -22.015625 Z M 20.359375 -22.015625" transform="translate(182.535 240.204)"/></g></g></g><g><g><g><path d="M 10.6875 -10.203125 C 10.71875 -9.585938 10.789062 -9.050781 10.90625 -8.59375 C 11.019531 -7.976562 11.222656 -7.453125 11.515625 -7.015625 C 11.742188 -6.671875 12.253906 -6.3125 13.046875 -5.9375 C 13.796875 -5.5 14.429688 -5.25 14.953125 -5.1875 C 15.710938 -5.132812 16.132812 -5.109375 16.21875 -5.109375 C 16.3125 -5.191406 16.472656 -5.289062 16.703125 -5.40625 L 16.96875 -5.625 C 17.375 -5.914062 17.851562 -6.0625 18.40625 -6.0625 C 19.394531 -6.0625 20.164062 -5.671875 20.71875 -4.890625 C 21.007812 -4.484375 21.15625 -4 21.15625 -3.4375 C 21.15625 -2.476562 20.757812 -1.722656 19.96875 -1.171875 L 19.671875 -0.953125 L 19.015625 -0.515625 C 18.367188 -0.109375 17.613281 0.132812 16.75 0.21875 C 16.570312 0.25 16.296875 0.265625 15.921875 0.265625 C 15.660156 0.265625 15.148438 0.234375 14.390625 0.171875 C 14.304688 0.140625 14.175781 0.125 14 0.125 C 13.59375 0.363281 13.140625 0.484375 12.640625 0.484375 L 11.90625 0.484375 C 11.53125 0.484375 10.9375 0.453125 10.125 0.390625 C 9.363281 0.359375 8.472656 0.140625 7.453125 -0.265625 C 6.378906 -0.640625 5.378906 -1.28125 4.453125 -2.1875 C 3.492188 -3.082031 2.851562 -4.066406 2.53125 -5.140625 C 2.300781 -5.984375 2.1875 -6.785156 2.1875 -7.546875 L 2.21875 -9.859375 C 2.21875 -10.898438 2.207031 -11.550781 2.1875 -11.8125 C 2.125 -12.507812 2.296875 -13.71875 2.703125 -15.4375 C 3.109375 -17.125 3.5 -18.375 3.875 -19.1875 C 4.226562 -19.914062 4.550781 -20.507812 4.84375 -20.96875 C 5.101562 -21.40625 5.40625 -21.816406 5.75 -22.203125 C 6.28125 -22.804688 6.878906 -23.238281 7.546875 -23.5 C 7.984375 -23.707031 8.535156 -23.8125 9.203125 -23.8125 C 9.378906 -23.925781 9.507812 -24 9.59375 -24.03125 C 10.175781 -24.289062 10.640625 -24.4375 10.984375 -24.46875 L 12.640625 -24.640625 C 12.734375 -24.671875 12.910156 -24.671875 13.171875 -24.640625 C 13.429688 -24.578125 13.578125 -24.5625 13.609375 -24.59375 L 13.65625 -24.59375 L 14 -24.515625 C 14.195312 -24.421875 14.3125 -24.390625 14.34375 -24.421875 C 14.375 -24.421875 14.492188 -24.378906 14.703125 -24.296875 L 15.046875 -24.109375 L 15.34375 -23.9375 C 15.488281 -23.820312 15.59375 -23.765625 15.65625 -23.765625 C 16.757812 -23.179688 17.644531 -22.382812 18.3125 -21.375 C 18.957031 -20.4375 19.394531 -19.429688 19.625 -18.359375 C 19.800781 -17.546875 19.890625 -16.660156 19.890625 -15.703125 C 19.890625 -14.484375 19.84375 -13.695312 19.75 -13.34375 C 19.726562 -12.875 19.582031 -12.394531 19.3125 -11.90625 C 19 -11.238281 18.550781 -10.785156 17.96875 -10.546875 C 17.382812 -10.285156 16.832031 -10.15625 16.3125 -10.15625 L 12.828125 -10.15625 L 10.859375 -10.203125 Z M 11.078125 -15.5625 L 12.828125 -15.53125 L 14.515625 -15.53125 C 14.515625 -16.226562 14.472656 -16.804688 14.390625 -17.265625 C 14.304688 -17.585938 14.144531 -17.953125 13.90625 -18.359375 C 13.738281 -18.585938 13.476562 -18.820312 13.125 -19.0625 L 12.640625 -19.28125 C 12.554688 -19.25 12.429688 -19.222656 12.265625 -19.203125 C 12.109375 -19.191406 11.988281 -19.1875 11.90625 -19.1875 L 11.6875 -18.921875 C 11.363281 -18.460938 11.117188 -17.765625 10.953125 -16.828125 C 10.890625 -16.566406 10.828125 -16.144531 10.765625 -15.5625 Z M 11.078125 -15.5625" transform="translate(207.871 240.204)"/></g></g></g><g><g><g><path d="M 18.703125 -17.921875 C 20.078125 -17.046875 21.160156 -15.769531 21.953125 -14.09375 C 22.753906 -12.425781 23.15625 -10.691406 23.15625 -8.890625 L 23.15625 -6.84375 C 23.15625 -5.832031 23.050781 -5.078125 22.84375 -4.578125 C 22.644531 -4.085938 22.09375 -3.347656 21.1875 -2.359375 C 19.21875 0.0234375 16.546875 1.21875 13.171875 1.21875 C 10.992188 1.21875 9.597656 0.429688 8.984375 -1.140625 C 7.648438 -1.160156 6.515625 -1.613281 5.578125 -2.5 C 4.648438 -3.394531 3.953125 -4.582031 3.484375 -6.0625 C 3.023438 -7.539062 2.691406 -9.050781 2.484375 -10.59375 C 2.285156 -12.132812 2.1875 -13.804688 2.1875 -15.609375 C 2.1875 -17.359375 2.191406 -18.753906 2.203125 -19.796875 C 2.210938 -20.847656 2.269531 -22.082031 2.375 -23.5 C 2.476562 -24.925781 2.613281 -26.0625 2.78125 -26.90625 C 2.957031 -27.75 3.207031 -28.640625 3.53125 -29.578125 C 3.851562 -30.523438 4.242188 -31.253906 4.703125 -31.765625 C 5.171875 -32.273438 5.757812 -32.695312 6.46875 -33.03125 C 7.1875 -33.363281 7.992188 -33.53125 8.890625 -33.53125 C 9.648438 -33.53125 10.265625 -33.300781 10.734375 -32.84375 C 11.253906 -32.988281 11.742188 -33.0625 12.203125 -33.0625 C 14.210938 -33.0625 16.023438 -32.125 17.640625 -30.25 C 19.253906 -28.375 20.0625 -26.140625 20.0625 -23.546875 C 20.0625 -21.367188 19.609375 -19.492188 18.703125 -17.921875 Z M 11.15625 -27.5625 C 10.988281 -24.445312 10.90625 -21.507812 10.90625 -18.75 L 10.90625 -18.40625 C 12.269531 -18.925781 13.289062 -19.628906 13.96875 -20.515625 C 14.65625 -21.398438 15 -22.335938 15 -23.328125 C 15 -24.316406 14.65625 -25.203125 13.96875 -25.984375 C 13.289062 -26.773438 12.351562 -27.300781 11.15625 -27.5625 Z M 17.796875 -6.578125 L 17.796875 -8.890625 C 17.796875 -9.710938 17.601562 -10.59375 17.21875 -11.53125 C 16.84375 -12.476562 16.335938 -13.125 15.703125 -13.46875 C 15.378906 -13.675781 14.519531 -13.78125 13.125 -13.78125 C 12.632812 -13.78125 11.921875 -13.75 10.984375 -13.6875 C 11.222656 -9.269531 11.628906 -6.335938 12.203125 -4.890625 L 14.390625 -4.234375 C 15.753906 -4.546875 16.890625 -5.328125 17.796875 -6.578125 Z M 17.796875 -6.578125" transform="translate(235.562 240.204)"/></g></g></g><g><g><g><path d="M 22.28125 -4.53125 C 22.375 -3.894531 22.421875 -3.414062 22.421875 -3.09375 L 22.421875 -2.265625 C 22.421875 -1.515625 22.164062 -0.875 21.65625 -0.34375 C 21.144531 0.175781 20.507812 0.4375 19.75 0.4375 C 19 0.4375 18.359375 0.175781 17.828125 -0.34375 C 17.304688 -0.875 17.046875 -1.515625 17.046875 -2.265625 C 17.046875 -2.617188 16.96875 -3.554688 16.8125 -5.078125 C 16.65625 -6.609375 16.5625 -7.617188 16.53125 -8.109375 C 15.332031 -5.554688 14.109375 -3.566406 12.859375 -2.140625 C 11.609375 -0.710938 10.097656 0 8.328125 0 C 6.035156 0 4.4375 -1.035156 3.53125 -3.109375 C 2.632812 -5.191406 2.1875 -8.285156 2.1875 -12.390625 C 2.1875 -13.691406 2.289062 -15.34375 2.5 -17.34375 C 2.71875 -19.351562 2.828125 -20.695312 2.828125 -21.375 C 2.828125 -22.1875 2.992188 -22.804688 3.328125 -23.234375 C 3.671875 -23.671875 4.117188 -23.890625 4.671875 -23.890625 C 4.898438 -23.890625 5.144531 -23.847656 5.40625 -23.765625 C 5.957031 -24.265625 6.566406 -24.515625 7.234375 -24.515625 C 7.960938 -24.515625 8.585938 -24.242188 9.109375 -23.703125 C 9.640625 -23.160156 9.90625 -22.53125 9.90625 -21.8125 C 9.90625 -17.769531 10.109375 -13 10.515625 -7.5 C 12.054688 -8.957031 13.332031 -11 14.34375 -13.625 C 15.363281 -16.257812 15.875 -18.914062 15.875 -21.59375 C 15.875 -22.3125 16.140625 -22.929688 16.671875 -23.453125 C 17.210938 -23.984375 17.847656 -24.25 18.578125 -24.25 C 19.304688 -24.25 19.929688 -23.984375 20.453125 -23.453125 C 20.972656 -22.929688 21.234375 -22.3125 21.234375 -21.59375 L 21.234375 -20.96875 C 21.617188 -18.59375 21.8125 -16.578125 21.8125 -14.921875 C 21.8125 -11.984375 21.820312 -10.175781 21.84375 -9.5 C 21.875 -7.789062 22.019531 -6.132812 22.28125 -4.53125 Z M 22.28125 -4.53125" transform="translate(265.258 240.204)"/></g></g></g><g><g><g><path d="M 20.359375 -22.015625 C 20.484375 -21.703125 20.546875 -21.351562 20.546875 -20.96875 C 20.546875 -19.695312 19.929688 -18.84375 18.703125 -18.40625 C 16.003906 -17.5 13.039062 -14.894531 9.8125 -10.59375 C 9.601562 -7.570312 9.09375 -4.535156 8.28125 -1.484375 C 8.132812 -0.867188 7.804688 -0.375 7.296875 0 C 6.796875 0.375 6.269531 0.5625 5.71875 0.5625 C 5.039062 0.5625 4.445312 0.335938 3.9375 -0.109375 C 3.4375 -0.554688 3.128906 -1.113281 3.015625 -1.78125 C 2.484375 -2.507812 2.21875 -3.660156 2.21875 -5.234375 C 2.21875 -6.160156 2.25 -7.800781 2.3125 -10.15625 C 2.375 -12.507812 2.40625 -13.734375 2.40625 -13.828125 L 2.21875 -20.9375 C 2.164062 -22.007812 2.347656 -22.882812 2.765625 -23.5625 C 3.191406 -24.25 3.8125 -24.59375 4.625 -24.59375 C 5.40625 -24.59375 5.925781 -24.578125 6.1875 -24.546875 C 7 -24.523438 7.695312 -24.351562 8.28125 -24.03125 C 9.300781 -23.476562 9.8125 -21.921875 9.8125 -19.359375 C 11.40625 -21.804688 13.132812 -23.332031 15 -23.9375 C 15.695312 -24.175781 16.335938 -24.296875 16.921875 -24.296875 C 17.796875 -24.296875 18.550781 -24.097656 19.1875 -23.703125 C 19.820312 -23.304688 20.210938 -22.742188 20.359375 -22.015625 Z M 20.359375 -22.015625" transform="translate(294.213 240.204)"/></g></g></g><g><g><g><path d="M 21.546875 -13.125 C 21.578125 -12.601562 21.59375 -11.6875 21.59375 -10.375 C 21.59375 -7.9375 21.53125 -5.320312 21.40625 -2.53125 C 21.382812 -1.800781 21.097656 -1.195312 20.546875 -0.71875 C 19.992188 -0.238281 19.394531 0 18.75 0 C 17.90625 0 17.226562 -0.28125 16.71875 -0.84375 C 16.21875 -1.414062 15.992188 -2.09375 16.046875 -2.875 C 16.160156 -5.0625 16.21875 -7.359375 16.21875 -9.765625 C 16.21875 -11.972656 16.140625 -13.550781 15.984375 -14.5 C 15.828125 -15.445312 15.5 -16.09375 15 -16.4375 C 13.550781 -15.5625 11.9375 -13.976562 10.15625 -11.6875 C 10.394531 -8.457031 10.515625 -6.800781 10.515625 -6.71875 C 10.515625 -6.507812 10.503906 -6.253906 10.484375 -5.953125 C 10.472656 -5.648438 10.457031 -5.222656 10.4375 -4.671875 C 10.425781 -4.117188 10.421875 -3.566406 10.421875 -3.015625 L 9.9375 -0.5625 C 9.332031 0.363281 8.550781 0.828125 7.59375 0.828125 C 6.75 0.828125 6.015625 0.578125 5.390625 0.078125 C 4.765625 -0.410156 4.347656 -1.0625 4.140625 -1.875 C 4.109375 -2.050781 4.085938 -2.144531 4.078125 -2.15625 C 4.066406 -2.175781 4.050781 -2.222656 4.03125 -2.296875 C 4.019531 -2.367188 4 -2.445312 3.96875 -2.53125 C 3.9375 -2.613281 3.875 -2.804688 3.78125 -3.109375 C 3.695312 -3.421875 3.597656 -3.8125 3.484375 -4.28125 C 2.617188 -7.445312 2.1875 -11.050781 2.1875 -15.09375 C 2.1875 -17.0625 2.195312 -18.601562 2.21875 -19.71875 C 2.28125 -20.988281 2.539062 -22.066406 3 -22.953125 C 3.46875 -23.847656 4.125 -24.410156 4.96875 -24.640625 C 5.320312 -24.691406 5.570312 -24.71875 5.71875 -24.71875 C 6.0625 -24.71875 6.363281 -24.660156 6.625 -24.546875 C 6.914062 -24.609375 7.25 -24.640625 7.625 -24.640625 C 8.351562 -24.640625 8.992188 -24.378906 9.546875 -23.859375 C 10.066406 -23.328125 10.328125 -22.703125 10.328125 -21.984375 C 10.328125 -21.398438 10.171875 -20.90625 9.859375 -20.5 C 11.285156 -22.007812 12.898438 -23.082031 14.703125 -23.71875 C 15.515625 -23.71875 16.234375 -23.679688 16.859375 -23.609375 C 17.484375 -23.535156 18.023438 -23.367188 18.484375 -23.109375 C 18.953125 -22.847656 19.34375 -22.609375 19.65625 -22.390625 C 19.976562 -22.171875 20.25 -21.789062 20.46875 -21.25 C 20.6875 -20.71875 20.859375 -20.253906 20.984375 -19.859375 C 21.117188 -19.472656 21.222656 -18.84375 21.296875 -17.96875 C 21.367188 -17.09375 21.421875 -16.363281 21.453125 -15.78125 C 21.484375 -15.207031 21.515625 -14.320312 21.546875 -13.125 Z M 21.546875 -13.125" transform="translate(319.549 240.204)"/></g></g></g><path stroke-linecap="round" transform="matrix(3.74505 0 0 3.75 89.87 253.773)" fill="none" d="M 0.499747 0.0000692705 L 51.569265 0.0000692705" stroke="#000"/><path stroke-linecap="round" transform="matrix(2.98816 0 0 2.88722 89.87 199.445)" fill="none" d="M 0.499528 -0.0000374073 L 17.322416 -0.0000374073" stroke="#000"/><path stroke-linecap="round" transform="matrix(2.98816 0 0 2.88722 231.661 199.445)" fill="none" d="M 0.500254 -0.0000374073 L 17.323142 -0.0000374073" stroke="#000"/><g clip-path="url(#a)"><path fill="#D43D3D" d="M 247.949219 147.011719 L 176.039062 132.402344 L 248.324219 117.589844 C 250.882812 117.066406 252.769531 115.511719 252.464844 114.128906 C 252.160156 112.746094 249.796875 112.121094 247.25 112.71875 L 169.066406 130.984375 L 166.0625 130.375 C 165.625 129.988281 164.910156 129.933594 164.574219 130.59375 C 163.289062 133.09375 164.730469 134.976562 165.179688 137.496094 C 165.664062 140.175781 162.890625 142.011719 163.472656 144.765625 C 163.703125 145.839844 164.65625 146.464844 165.023438 147.414062 C 165.835938 149.507812 164.789062 151.035156 164.574219 153.027344 C 164.300781 155.527344 166.71875 157.496094 166.839844 159.820312 L 168.808594 159.820312 C 168.722656 158.417969 168.0625 157.285156 167.351562 155.878906 C 165.78125 152.792969 168.703125 150.496094 167.460938 147.539062 C 166.820312 146 165.136719 145.222656 165.53125 143.199219 C 165.761719 142.019531 166.824219 140.960938 167.214844 139.800781 C 167.824219 137.996094 166.773438 136.144531 166.261719 134.402344 L 167.230469 134.207031 C 167.414062 135.527344 168.03125 136.808594 168.304688 138.316406 C 168.78125 140.996094 166.011719 142.835938 166.597656 145.585938 C 166.824219 146.660156 167.777344 147.285156 168.144531 148.234375 C 168.957031 150.328125 167.914062 151.855469 167.695312 153.84375 C 167.453125 156.050781 169.304688 157.835938 169.832031 159.820312 L 171.816406 159.820312 C 171.578125 158.769531 171.042969 157.824219 170.46875 156.699219 C 168.902344 153.609375 171.824219 151.316406 170.585938 148.355469 C 169.941406 146.820312 168.261719 146.039062 168.652344 144.019531 C 168.882812 142.835938 169.945312 141.777344 170.335938 140.621094 C 171.113281 138.320312 169.1875 135.941406 169.128906 133.816406 L 169.355469 133.773438 L 171.507812 134.273438 C 171.640625 135.6875 172.324219 137.035156 172.613281 138.640625 C 173.089844 141.320312 170.320312 143.160156 170.90625 145.910156 C 171.132812 146.984375 172.085938 147.609375 172.457031 148.558594 C 173.269531 150.648438 172.222656 152.179688 172.003906 154.171875 C 171.777344 156.253906 173.421875 157.964844 174.046875 159.820312 L 176.035156 159.820312 C 175.769531 158.898438 175.289062 158.03125 174.78125 157.023438 C 173.210938 153.933594 176.132812 151.644531 174.894531 148.679688 C 174.25 147.148438 172.570312 146.363281 172.964844 144.34375 C 173.191406 143.160156 174.253906 142.101562 174.644531 140.945312 C 175.351562 138.859375 173.832031 136.703125 173.496094 134.738281 L 246.878906 151.882812 C 249.421875 152.476562 251.785156 151.851562 252.085938 150.472656 C 252.394531 149.089844 250.507812 147.535156 247.949219 147.011719 Z M 236 167.261719 C 231.835938 182.484375 220.820312 194.875 206.464844 200.921875 L 166.65625 200.921875 C 152.300781 194.875 141.289062 182.484375 137.125 167.261719 C 136.382812 164.546875 138.410156 161.867188 141.226562 161.867188 L 231.898438 161.867188 C 234.714844 161.867188 236.742188 164.546875 236 167.261719"/></g><g fill="#D43D3D"><g><g><path d="M 3.875 -3.703125 C 3.882812 -3.484375 3.914062 -3.289062 3.96875 -3.125 C 4.007812 -2.894531 4.082031 -2.703125 4.1875 -2.546875 C 4.269531 -2.421875 4.453125 -2.289062 4.734375 -2.15625 C 5.015625 -2 5.25 -1.910156 5.4375 -1.890625 C 5.707031 -1.867188 5.859375 -1.859375 5.890625 -1.859375 C 5.921875 -1.890625 5.976562 -1.925781 6.0625 -1.96875 L 6.15625 -2.046875 C 6.3125 -2.148438 6.488281 -2.203125 6.6875 -2.203125 C 7.039062 -2.203125 7.320312 -2.0625 7.53125 -1.78125 C 7.632812 -1.625 7.6875 -1.445312 7.6875 -1.25 C 7.6875 -0.90625 7.539062 -0.628906 7.25 -0.421875 L 7.140625 -0.34375 L 6.90625 -0.1875 C 6.675781 -0.0390625 6.398438 0.046875 6.078125 0.078125 C 6.015625 0.0859375 5.914062 0.09375 5.78125 0.09375 C 5.6875 0.09375 5.503906 0.0820312 5.234375 0.0625 C 5.203125 0.0507812 5.148438 0.046875 5.078125 0.046875 C 4.929688 0.128906 4.769531 0.171875 4.59375 0.171875 L 4.328125 0.171875 C 4.191406 0.171875 3.972656 0.160156 3.671875 0.140625 C 3.398438 0.128906 3.078125 0.0507812 2.703125 -0.09375 C 2.316406 -0.226562 1.953125 -0.460938 1.609375 -0.796875 C 1.265625 -1.117188 1.035156 -1.476562 0.921875 -1.875 C 0.835938 -2.175781 0.796875 -2.460938 0.796875 -2.734375 L 0.8125 -3.578125 C 0.8125 -3.960938 0.804688 -4.203125 0.796875 -4.296875 C 0.773438 -4.546875 0.835938 -4.984375 0.984375 -5.609375 C 1.128906 -6.222656 1.269531 -6.675781 1.40625 -6.96875 C 1.53125 -7.238281 1.648438 -7.457031 1.765625 -7.625 C 1.859375 -7.78125 1.96875 -7.925781 2.09375 -8.0625 C 2.28125 -8.28125 2.492188 -8.441406 2.734375 -8.546875 C 2.898438 -8.617188 3.101562 -8.65625 3.34375 -8.65625 C 3.40625 -8.695312 3.453125 -8.722656 3.484375 -8.734375 C 3.691406 -8.828125 3.863281 -8.878906 4 -8.890625 L 4.59375 -8.953125 C 4.625 -8.960938 4.6875 -8.960938 4.78125 -8.953125 C 4.875 -8.929688 4.925781 -8.925781 4.9375 -8.9375 L 4.953125 -8.9375 L 5.078125 -8.90625 C 5.160156 -8.875 5.207031 -8.863281 5.21875 -8.875 C 5.226562 -8.875 5.269531 -8.859375 5.34375 -8.828125 L 5.46875 -8.765625 L 5.578125 -8.703125 C 5.628906 -8.660156 5.664062 -8.640625 5.6875 -8.640625 C 6.09375 -8.421875 6.414062 -8.128906 6.65625 -7.765625 C 6.882812 -7.421875 7.039062 -7.054688 7.125 -6.671875 C 7.1875 -6.378906 7.21875 -6.054688 7.21875 -5.703125 C 7.21875 -5.253906 7.203125 -4.96875 7.171875 -4.84375 C 7.160156 -4.675781 7.109375 -4.503906 7.015625 -4.328125 C 6.898438 -4.085938 6.738281 -3.921875 6.53125 -3.828125 C 6.3125 -3.734375 6.109375 -3.6875 5.921875 -3.6875 L 4.65625 -3.6875 L 3.9375 -3.703125 Z M 4.03125 -5.65625 L 4.65625 -5.640625 L 5.28125 -5.640625 C 5.28125 -5.890625 5.265625 -6.101562 5.234375 -6.28125 C 5.203125 -6.394531 5.140625 -6.523438 5.046875 -6.671875 C 4.984375 -6.753906 4.890625 -6.835938 4.765625 -6.921875 L 4.59375 -7 C 4.5625 -6.988281 4.515625 -6.976562 4.453125 -6.96875 C 4.398438 -6.96875 4.359375 -6.96875 4.328125 -6.96875 L 4.25 -6.875 C 4.132812 -6.707031 4.046875 -6.453125 3.984375 -6.109375 C 3.953125 -6.015625 3.925781 -5.863281 3.90625 -5.65625 Z M 4.03125 -5.65625" transform="translate(99.058 184.307)"/></g></g></g><g fill="#D43D3D"><g><g><path d="M 2.921875 -0.046875 C 4.003906 -0.179688 4.546875 -0.875 4.546875 -2.125 C 4.546875 -2.789062 4.472656 -3.375 4.328125 -3.875 C 4.191406 -4.382812 4.03125 -4.757812 3.84375 -5 C 3.664062 -5.25 3.503906 -5.523438 3.359375 -5.828125 C 3.222656 -6.140625 3.15625 -6.453125 3.15625 -6.765625 C 3.15625 -6.796875 3.160156 -6.820312 3.171875 -6.84375 C 3.242188 -6.851562 3.492188 -6.859375 3.921875 -6.859375 C 4.191406 -6.859375 4.421875 -6.957031 4.609375 -7.15625 C 4.796875 -7.351562 4.890625 -7.582031 4.890625 -7.84375 C 4.890625 -8.101562 4.796875 -8.328125 4.609375 -8.515625 C 4.421875 -8.710938 4.191406 -8.8125 3.921875 -8.8125 C 3.597656 -8.8125 3.269531 -8.800781 2.9375 -8.78125 C 2.820312 -8.8125 2.703125 -8.828125 2.578125 -8.828125 C 2.160156 -8.828125 1.757812 -8.640625 1.375 -8.265625 C 0.988281 -7.890625 0.796875 -7.503906 0.796875 -7.109375 C 0.796875 -6.554688 0.90625 -5.921875 1.125 -5.203125 C 1.34375 -4.484375 1.5625 -3.832031 1.78125 -3.25 C 2 -2.675781 2.109375 -2.289062 2.109375 -2.09375 C 2.109375 -2.0625 2.097656 -2.003906 2.078125 -1.921875 L 1.921875 -1.90625 C 1.648438 -1.875 1.429688 -1.757812 1.265625 -1.5625 C 1.109375 -1.363281 1.03125 -1.148438 1.03125 -0.921875 C 1.03125 -0.296875 1.425781 0.015625 2.21875 0.015625 C 2.363281 0.015625 2.597656 -0.00390625 2.921875 -0.046875 Z M 2.921875 -0.046875" transform="translate(108.327 184.307)"/></g></g></g><g fill="#D43D3D"><g><g><path d="M 6.421875 -8.203125 C 6.710938 -8.015625 6.859375 -7.757812 6.859375 -7.4375 C 6.859375 -7.269531 6.816406 -7.09375 6.734375 -6.90625 C 6.515625 -6.507812 5.9375 -6.242188 5 -6.109375 L 4.8125 -6.078125 C 4.800781 -5.847656 4.757812 -5.3125 4.6875 -4.46875 C 4.65625 -3.957031 4.640625 -3.65625 4.640625 -3.5625 C 4.640625 -2.882812 4.769531 -2.425781 5.03125 -2.1875 C 5.3125 -2.113281 5.539062 -1.988281 5.71875 -1.8125 C 5.894531 -1.644531 5.984375 -1.457031 5.984375 -1.25 C 5.984375 -0.90625 5.867188 -0.609375 5.640625 -0.359375 C 5.410156 -0.117188 5.148438 0 4.859375 0 C 4.109375 0 3.585938 -0.171875 3.296875 -0.515625 C 2.617188 -1.328125 2.296875 -2.476562 2.328125 -3.96875 C 2.347656 -4.132812 2.367188 -4.734375 2.390625 -5.765625 L 1.75 -5.671875 C 1.488281 -5.640625 1.257812 -5.722656 1.0625 -5.921875 C 0.875 -6.128906 0.785156 -6.367188 0.796875 -6.640625 C 0.785156 -6.890625 0.875 -7.101562 1.0625 -7.28125 C 1.25 -7.46875 1.488281 -7.582031 1.78125 -7.625 L 2.4375 -7.734375 L 2.4375 -9.046875 C 2.4375 -9.492188 2.457031 -9.796875 2.5 -9.953125 L 2.53125 -10.078125 C 2.59375 -10.316406 2.734375 -10.507812 2.953125 -10.65625 C 3.097656 -10.988281 3.347656 -11.179688 3.703125 -11.234375 C 3.734375 -11.242188 3.785156 -11.25 3.859375 -11.25 C 4.054688 -11.25 4.242188 -11.1875 4.421875 -11.0625 C 4.640625 -10.882812 4.765625 -10.664062 4.796875 -10.40625 L 4.8125 -10.296875 C 4.832031 -10.128906 4.84375 -10.007812 4.84375 -9.9375 C 4.875 -9.34375 4.890625 -8.90625 4.890625 -8.625 L 4.890625 -8.125 L 5.03125 -8.140625 C 5.644531 -8.242188 5.984375 -8.296875 6.046875 -8.296875 C 6.210938 -8.296875 6.335938 -8.265625 6.421875 -8.203125 Z M 6.421875 -8.203125" transform="translate(114.807 184.307)"/></g></g></g><g fill="#D43D3D"><g><g><path d="M 7.984375 -10.40625 C 8.035156 -9.863281 8.0625 -9.179688 8.0625 -8.359375 C 8.0625 -7.117188 7.984375 -5.78125 7.828125 -4.34375 L 7.546875 -1.5 C 7.492188 -0.96875 7.46875 -0.632812 7.46875 -0.5 C 7.5 -0.46875 7.53125 -0.429688 7.5625 -0.390625 C 7.59375 -0.359375 7.613281 -0.332031 7.625 -0.3125 C 7.632812 -0.300781 7.644531 -0.285156 7.65625 -0.265625 C 7.664062 -0.242188 7.671875 -0.222656 7.671875 -0.203125 C 7.679688 -0.179688 7.6875 -0.15625 7.6875 -0.125 C 7.6875 0.0703125 7.484375 0.238281 7.078125 0.375 C 6.671875 0.519531 6.304688 0.59375 5.984375 0.59375 C 5.523438 0.59375 5.285156 0.359375 5.265625 -0.109375 C 4.910156 0.015625 4.585938 0.078125 4.296875 0.078125 C 3.242188 0.078125 2.394531 -0.191406 1.75 -0.734375 C 1.113281 -1.285156 0.796875 -2.054688 0.796875 -3.046875 C 0.796875 -4.085938 0.953125 -4.945312 1.265625 -5.625 C 1.578125 -6.300781 2.066406 -6.875 2.734375 -7.34375 C 2.921875 -7.476562 3.117188 -7.539062 3.328125 -7.53125 C 3.660156 -7.769531 4.054688 -7.890625 4.515625 -7.890625 C 4.847656 -7.890625 5.207031 -7.820312 5.59375 -7.6875 C 5.59375 -8.457031 5.585938 -9.066406 5.578125 -9.515625 C 5.578125 -9.953125 5.609375 -10.296875 5.671875 -10.546875 C 5.734375 -10.796875 5.867188 -10.992188 6.078125 -11.140625 C 6.253906 -11.523438 6.5625 -11.71875 7 -11.71875 C 7.3125 -11.71875 7.550781 -11.597656 7.71875 -11.359375 C 7.894531 -11.117188 7.984375 -10.800781 7.984375 -10.40625 Z M 3.828125 -3.078125 C 3.984375 -2.753906 4.425781 -2.492188 5.15625 -2.296875 C 5.21875 -2.328125 5.320312 -2.351562 5.46875 -2.375 L 5.53125 -3.328125 C 5.550781 -3.847656 5.570312 -4.554688 5.59375 -5.453125 C 5.300781 -5.734375 4.921875 -5.894531 4.453125 -5.9375 C 4.390625 -5.914062 4.304688 -5.8125 4.203125 -5.625 C 4.109375 -5.4375 4.035156 -5.238281 3.984375 -5.03125 Z M 5.265625 -0.140625 Z M 5.265625 -0.109375 L 5.28125 -0.125 Z M 5.265625 -0.109375" transform="translate(123.253 184.307)"/></g></g></g><g fill="#D43D3D"><g><g><path d="M 2.84375 -9.0625 L 2.765625 -9.171875 L 2.765625 -9.296875 C 2.765625 -9.429688 2.820312 -9.570312 2.9375 -9.71875 C 3.007812 -9.789062 3.097656 -9.828125 3.203125 -9.828125 C 3.472656 -9.828125 3.628906 -9.65625 3.671875 -9.3125 C 3.691406 -9.1875 3.703125 -9.003906 3.703125 -8.765625 C 3.703125 -8.128906 3.566406 -7.46875 3.296875 -6.78125 C 3.023438 -6.09375 2.691406 -5.394531 2.296875 -4.6875 C 1.910156 -3.988281 1.65625 -3.46875 1.53125 -3.125 C 1.507812 -3.082031 1.4375 -2.863281 1.3125 -2.46875 L 1.09375 -1.84375 C 1 -1.5625 0.941406 -1.390625 0.921875 -1.328125 C 0.910156 -1.273438 0.882812 -1.175781 0.84375 -1.03125 C 0.8125 -0.914062 0.796875 -0.8125 0.796875 -0.71875 C 0.796875 -0.21875 1.0625 0.160156 1.59375 0.421875 C 1.988281 0.597656 2.59375 0.6875 3.40625 0.6875 L 4.890625 0.6875 C 5.117188 0.6875 5.269531 0.691406 5.34375 0.703125 L 5.546875 0.71875 C 5.828125 0.738281 6.070312 0.648438 6.28125 0.453125 C 6.5 0.265625 6.609375 0.03125 6.609375 -0.25 C 6.609375 -0.5 6.519531 -0.71875 6.34375 -0.90625 C 6.164062 -1.09375 5.957031 -1.203125 5.71875 -1.234375 L 5.515625 -1.25 C 5.398438 -1.257812 5.191406 -1.265625 4.890625 -1.265625 L 4.640625 -1.265625 C 4.710938 -1.441406 4.835938 -1.800781 5.015625 -2.34375 C 5.191406 -2.894531 5.3125 -3.316406 5.375 -3.609375 C 5.550781 -4.390625 5.671875 -5.054688 5.734375 -5.609375 C 5.773438 -6.003906 5.8125 -6.289062 5.84375 -6.46875 C 5.90625 -7.007812 5.9375 -7.570312 5.9375 -8.15625 L 5.9375 -9.09375 C 5.9375 -9.625 5.851562 -10.09375 5.6875 -10.5 C 5.507812 -10.925781 5.179688 -11.265625 4.703125 -11.515625 C 4.234375 -11.765625 3.742188 -11.890625 3.234375 -11.890625 C 2.546875 -11.890625 1.972656 -11.625 1.515625 -11.09375 C 1.054688 -10.5625 0.828125 -9.960938 0.828125 -9.296875 C 0.828125 -8.890625 0.898438 -8.546875 1.046875 -8.265625 L 1.140625 -8.109375 C 1.335938 -7.785156 1.628906 -7.625 2.015625 -7.625 C 2.179688 -7.625 2.332031 -7.660156 2.46875 -7.734375 C 2.75 -7.910156 2.910156 -8.132812 2.953125 -8.40625 C 2.953125 -8.695312 2.914062 -8.914062 2.84375 -9.0625 Z M 2.84375 -9.0625" transform="translate(242.89 184.307)"/></g></g></g><g fill="#D43D3D"><g><g><path d="M 3.984375 0.328125 C 4.109375 0.367188 4.25 0.390625 4.40625 0.390625 C 4.601562 0.390625 4.785156 0.347656 4.953125 0.265625 C 5.097656 0.210938 5.210938 0.128906 5.296875 0.015625 C 5.410156 -0.0976562 5.46875 -0.175781 5.46875 -0.21875 C 5.644531 -0.457031 5.832031 -0.796875 6.03125 -1.234375 C 6.4375 -2.171875 6.648438 -3.613281 6.671875 -5.5625 C 6.679688 -5.71875 6.6875 -5.929688 6.6875 -6.203125 C 6.6875 -6.453125 6.679688 -6.625 6.671875 -6.71875 L 6.734375 -6.78125 C 6.941406 -6.988281 7.070312 -7.125 7.125 -7.1875 L 7.3125 -7.4375 C 7.46875 -7.613281 7.546875 -7.820312 7.546875 -8.0625 C 7.546875 -8.3125 7.453125 -8.535156 7.265625 -8.734375 C 7.085938 -8.929688 6.863281 -9.03125 6.59375 -9.03125 C 6.488281 -9.03125 6.382812 -9.015625 6.28125 -8.984375 L 5.984375 -9.984375 C 5.734375 -10.890625 5.226562 -11.472656 4.46875 -11.734375 C 4.3125 -11.785156 4.160156 -11.8125 4.015625 -11.8125 C 3.609375 -11.8125 3.25 -11.6875 2.9375 -11.4375 C 2.90625 -11.46875 2.84375 -11.503906 2.75 -11.546875 C 2.625 -11.609375 2.488281 -11.640625 2.34375 -11.640625 C 1.945312 -11.640625 1.644531 -11.46875 1.4375 -11.125 L 1.359375 -10.953125 C 1.179688 -10.617188 1.035156 -10.109375 0.921875 -9.421875 C 0.835938 -8.953125 0.796875 -7.972656 0.796875 -6.484375 L 0.796875 -5.0625 C 0.796875 -4.257812 0.800781 -3.675781 0.8125 -3.3125 C 0.820312 -2.195312 1.265625 -1.242188 2.140625 -0.453125 C 2.222656 -0.378906 2.316406 -0.289062 2.421875 -0.1875 C 2.535156 -0.0820312 2.609375 -0.0195312 2.640625 0 L 2.8125 0.171875 C 3.007812 0.359375 3.242188 0.453125 3.515625 0.453125 C 3.671875 0.453125 3.828125 0.410156 3.984375 0.328125 Z M 3.421875 -8.046875 C 3.484375 -8.148438 3.519531 -8.234375 3.53125 -8.296875 L 3.65625 -8.703125 C 3.71875 -8.941406 3.8125 -9.207031 3.9375 -9.5 L 4.046875 -9.703125 C 4.085938 -9.585938 4.113281 -9.492188 4.125 -9.421875 C 4.382812 -8.585938 4.5625 -7.914062 4.65625 -7.40625 L 3.84375 -6.5 C 3.75 -6.40625 3.609375 -6.238281 3.421875 -6 Z M 4.671875 -4.484375 C 4.597656 -3.316406 4.457031 -2.488281 4.25 -2 L 4.203125 -1.890625 C 4.171875 -1.929688 4.117188 -1.988281 4.046875 -2.0625 C 4.023438 -2.09375 3.992188 -2.128906 3.953125 -2.171875 C 3.910156 -2.222656 3.878906 -2.257812 3.859375 -2.28125 C 3.773438 -2.539062 3.703125 -2.882812 3.640625 -3.3125 C 3.898438 -3.601562 4.242188 -3.992188 4.671875 -4.484375 Z M 4.671875 -4.484375" transform="translate(251.082 184.307)"/></g></g></g><g fill="#D43D3D"><g><g><path d="M 2.84375 -9.0625 L 2.765625 -9.171875 L 2.765625 -9.296875 C 2.765625 -9.429688 2.820312 -9.570312 2.9375 -9.71875 C 3.007812 -9.789062 3.097656 -9.828125 3.203125 -9.828125 C 3.472656 -9.828125 3.628906 -9.65625 3.671875 -9.3125 C 3.691406 -9.1875 3.703125 -9.003906 3.703125 -8.765625 C 3.703125 -8.128906 3.566406 -7.46875 3.296875 -6.78125 C 3.023438 -6.09375 2.691406 -5.394531 2.296875 -4.6875 C 1.910156 -3.988281 1.65625 -3.46875 1.53125 -3.125 C 1.507812 -3.082031 1.4375 -2.863281 1.3125 -2.46875 L 1.09375 -1.84375 C 1 -1.5625 0.941406 -1.390625 0.921875 -1.328125 C 0.910156 -1.273438 0.882812 -1.175781 0.84375 -1.03125 C 0.8125 -0.914062 0.796875 -0.8125 0.796875 -0.71875 C 0.796875 -0.21875 1.0625 0.160156 1.59375 0.421875 C 1.988281 0.597656 2.59375 0.6875 3.40625 0.6875 L 4.890625 0.6875 C 5.117188 0.6875 5.269531 0.691406 5.34375 0.703125 L 5.546875 0.71875 C 5.828125 0.738281 6.070312 0.648438 6.28125 0.453125 C 6.5 0.265625 6.609375 0.03125 6.609375 -0.25 C 6.609375 -0.5 6.519531 -0.71875 6.34375 -0.90625 C 6.164062 -1.09375 5.957031 -1.203125 5.71875 -1.234375 L 5.515625 -1.25 C 5.398438 -1.257812 5.191406 -1.265625 4.890625 -1.265625 L 4.640625 -1.265625 C 4.710938 -1.441406 4.835938 -1.800781 5.015625 -2.34375 C 5.191406 -2.894531 5.3125 -3.316406 5.375 -3.609375 C 5.550781 -4.390625 5.671875 -5.054688 5.734375 -5.609375 C 5.773438 -6.003906 5.8125 -6.289062 5.84375 -6.46875 C 5.90625 -7.007812 5.9375 -7.570312 5.9375 -8.15625 L 5.9375 -9.09375 C 5.9375 -9.625 5.851562 -10.09375 5.6875 -10.5 C 5.507812 -10.925781 5.179688 -11.265625 4.703125 -11.515625 C 4.234375 -11.765625 3.742188 -11.890625 3.234375 -11.890625 C 2.546875 -11.890625 1.972656 -11.625 1.515625 -11.09375 C 1.054688 -10.5625 0.828125 -9.960938 0.828125 -9.296875 C 0.828125 -8.890625 0.898438 -8.546875 1.046875 -8.265625 L 1.140625 -8.109375 C 1.335938 -7.785156 1.628906 -7.625 2.015625 -7.625 C 2.179688 -7.625 2.332031 -7.660156 2.46875 -7.734375 C 2.75 -7.910156 2.910156 -8.132812 2.953125 -8.40625 C 2.953125 -8.695312 2.914062 -8.914062 2.84375 -9.0625 Z M 2.84375 -9.0625" transform="translate(260.209 184.307)"/></g></g></g><g fill="#D43D3D"><g><g><path d="M 2.84375 -9.0625 L 2.765625 -9.171875 L 2.765625 -9.296875 C 2.765625 -9.429688 2.820312 -9.570312 2.9375 -9.71875 C 3.007812 -9.789062 3.097656 -9.828125 3.203125 -9.828125 C 3.472656 -9.828125 3.628906 -9.65625 3.671875 -9.3125 C 3.691406 -9.1875 3.703125 -9.003906 3.703125 -8.765625 C 3.703125 -8.128906 3.566406 -7.46875 3.296875 -6.78125 C 3.023438 -6.09375 2.691406 -5.394531 2.296875 -4.6875 C 1.910156 -3.988281 1.65625 -3.46875 1.53125 -3.125 C 1.507812 -3.082031 1.4375 -2.863281 1.3125 -2.46875 L 1.09375 -1.84375 C 1 -1.5625 0.941406 -1.390625 0.921875 -1.328125 C 0.910156 -1.273438 0.882812 -1.175781 0.84375 -1.03125 C 0.8125 -0.914062 0.796875 -0.8125 0.796875 -0.71875 C 0.796875 -0.21875 1.0625 0.160156 1.59375 0.421875 C 1.988281 0.597656 2.59375 0.6875 3.40625 0.6875 L 4.890625 0.6875 C 5.117188 0.6875 5.269531 0.691406 5.34375 0.703125 L 5.546875 0.71875 C 5.828125 0.738281 6.070312 0.648438 6.28125 0.453125 C 6.5 0.265625 6.609375 0.03125 6.609375 -0.25 C 6.609375 -0.5 6.519531 -0.71875 6.34375 -0.90625 C 6.164062 -1.09375 5.957031 -1.203125 5.71875 -1.234375 L 5.515625 -1.25 C 5.398438 -1.257812 5.191406 -1.265625 4.890625 -1.265625 L 4.640625 -1.265625 C 4.710938 -1.441406 4.835938 -1.800781 5.015625 -2.34375 C 5.191406 -2.894531 5.3125 -3.316406 5.375 -3.609375 C 5.550781 -4.390625 5.671875 -5.054688 5.734375 -5.609375 C 5.773438 -6.003906 5.8125 -6.289062 5.84375 -6.46875 C 5.90625 -7.007812 5.9375 -7.570312 5.9375 -8.15625 L 5.9375 -9.09375 C 5.9375 -9.625 5.851562 -10.09375 5.6875 -10.5 C 5.507812 -10.925781 5.179688 -11.265625 4.703125 -11.515625 C 4.234375 -11.765625 3.742188 -11.890625 3.234375 -11.890625 C 2.546875 -11.890625 1.972656 -11.625 1.515625 -11.09375 C 1.054688 -10.5625 0.828125 -9.960938 0.828125 -9.296875 C 0.828125 -8.890625 0.898438 -8.546875 1.046875 -8.265625 L 1.140625 -8.109375 C 1.335938 -7.785156 1.628906 -7.625 2.015625 -7.625 C 2.179688 -7.625 2.332031 -7.660156 2.46875 -7.734375 C 2.75 -7.910156 2.910156 -8.132812 2.953125 -8.40625 C 2.953125 -8.695312 2.914062 -8.914062 2.84375 -9.0625 Z M 2.84375 -9.0625" transform="translate(268.4 184.307)"/></g></g></g></svg>