<svg xmlns="http://www.w3.org/2000/svg" viewBox="253.11 229.36 293.28 141.78">

 <g>
  <title>Layer 1</title>
  <defs transform="translate(205.247 0) translate(0 116.867)">
   <clipPath id="svg_1">
    <path d="m342.21562,229.3594l115.5,0l0,88.42969l-115.5,0l0,-88.42969zm0,0"/>
   </clipPath>
  </defs>
  <g>
   <g>
    <g>
     <path stroke="#fff" fill="#ffffff" transform="translate(46.176 240.204)" d="m224.91875,95.63283c0,2.38672 -0.17969,4.0586 -0.53125,5.01563c-0.78125,2.0625 -1.79688,3.46484 -3.04688,4.20312c-1.25,0.74219 -3.17187,1.1836 -5.76562,1.32813l0,8.71875c0,0.64844 -0.21094,1.22656 -0.625,1.73437c-0.41797,0.50001 -0.9336,0.81251 -1.54688,0.93751c-0.66797,0.48828 -1.29297,0.73437 -1.875,0.73437c-1.25,0 -2.24609,-0.76172 -2.98437,-2.28125c-0.74219,-1.53125 -1.10938,-3.19531 -1.10938,-5l0,-10.29688c0,-2.66406 0.42969,-6.80468 1.29688,-12.42187c0.17578,-0.90625 0.3789,-1.58594 0.60937,-2.04688l0.1875,-0.3125c0.45703,-0.92578 1.25391,-1.39062 2.39063,-1.39062c0.4375,0 0.84375,0.10156 1.21875,0.29687l0.26562,0.1875c0.22656,-0.0625 0.39844,-0.09375 0.51563,-0.09375c0.72656,-0.08203 1.67187,0 2.82812,0.25c1.16406,0.24219 2.16016,0.6211 2.98438,1.14063c1.625,0.99219 2.8789,2.32422 3.76562,4c0.88281,1.66797 1.35938,3.43359 1.42188,5.29687zm-9.46875,4.84375c0.90625,0 1.64453,-0.13281 2.21875,-0.40625c0.58203,-0.28125 1.0039,-0.67968 1.26562,-1.20312c0.25781,-0.53125 0.42578,-1.02344 0.5,-1.48438c0.07031,-0.46875 0.10938,-1.00781 0.10938,-1.625c0,-1.13281 -0.33594,-2.11328 -1,-2.9375c-0.66797,-0.83203 -1.82813,-1.25 -3.48438,-1.25c0,3.84375 0.12891,6.8125 0.39063,8.90625zm0,0"/>
    </g>
   </g>
  </g>
  <g>
   <g>
    <g>
     <path fill="#ffffff" transform="translate(72.384 240.204)" d="m222.43437,95.63283c1.13281,0.63672 1.92578,1.29297 2.375,1.96875c0.44531,0.66797 0.78516,1.85157 1.01563,3.54688c0.23828,1.69922 0.35937,4.39844 0.35937,8.09375c0,0.46094 -0.01172,1.26562 -0.03125,2.42187c-0.01172,1.14844 -0.01562,2.05469 -0.01562,2.71875c0,0.75 -0.25782,1.39063 -0.76563,1.92188c-0.51172,0.52344 -1.14062,0.78125 -1.89062,0.78125c-0.79297,0 -1.52344,-0.26563 -2.1875,-0.79688c-0.66797,-0.53906 -0.98438,-1.17578 -0.95313,-1.90625l0.17188,-10.6875c0.03125,-0.98828 -0.32813,-1.78125 -1.07813,-2.375c-0.74219,-0.59375 -1.6875,-0.89062 -2.84375,-0.89062c-0.21094,0 -0.54687,0.02734 -1.01562,0.07812c-0.375,7.1875 -0.5625,11.375 -0.5625,12.5625l0,1.65625c0,0.73047 -0.27344,1.35547 -0.8125,1.875c-0.53125,0.51954 -1.16407,0.78126 -1.89063,0.78126c-0.60547,0 -1.15234,-0.1875 -1.64062,-0.56251c-0.48047,-0.375 -0.79297,-0.85156 -0.9375,-1.4375c-0.66797,-0.11328 -1.21875,-0.41406 -1.65625,-0.90625c-0.42969,-0.5 -0.64063,-1.08203 -0.64063,-1.75c0,-0.25781 0.00781,-0.60937 0.03125,-1.04687c0.03125,-0.4375 0.0625,-0.82813 0.09375,-1.17188l0.04688,-0.48437l0,-7.23438c0,-0.96875 0.1289,-3.20312 0.39062,-6.70312c0.25781,-3.5 0.48828,-6.06641 0.6875,-7.70313c0.125,-0.63281 0.4375,-1.17187 0.9375,-1.60937c0.50781,-0.4375 1.10156,-0.65625 1.78125,-0.65625c0.375,0 0.73438,0.08984 1.07813,0.26562c0.25781,-0.08203 0.625,-0.125 1.09375,-0.125c1.60156,0.03125 2.40625,1.04688 2.40625,3.04688l-0.09375,4.84375c1.01953,-0.08203 2.16015,0.02734 3.42187,0.32812c1.26953,0.30469 2.3125,0.6875 3.125,1.15625zm0,0"/>
    </g>
   </g>
  </g>
  <g>
   <g>
    <g>
     <path fill="#ffffff" transform="translate(99.856 240.204)" d="m215.0125,116.25783c0.58203,0.40625 1.35156,0.60938 2.3125,0.60938c2.17578,0 3.85156,-0.96094 5.03125,-2.89063c1.1875,-1.9375 1.80468,-4.59375 1.85937,-7.96875c0.17578,-2.20703 0.26563,-3.89453 0.26563,-5.0625c0,-0.95703 -0.01563,-1.58203 -0.04688,-1.875c-0.14844,-1.85156 -0.99219,-3.36718 -2.53125,-4.54687c-1.54297,-1.17578 -3.35937,-1.76563 -5.45312,-1.76563c-3.08594,0 -5.14844,1.08985 -6.1875,3.26563c-0.76172,1.1875 -1.42188,2.60156 -1.98438,4.23437c-0.5625,1.625 -0.84375,2.97657 -0.84375,4.04688c0,2.88672 0.88281,5.67969 2.65625,8.375c0.45703,0.875 1.1875,1.71094 2.1875,2.5c1.00781,0.78125 1.92188,1.14062 2.73438,1.07812zm1.70312,-18.09375c1.05078,0 1.83594,0.42188 2.35938,1.26563c0.03125,0.3125 0.04687,1.3125 0.04687,3c0,4.21875 -0.45312,7.11719 -1.35937,8.6875c-1.25,-0.90625 -1.9336,-2.21875 -2.04688,-3.9375c-0.0625,-1.5625 -0.09375,-2.96875 -0.09375,-4.21875c0,-3.375 0.32031,-5.00391 0.96875,-4.89063c0.08203,0.0625 0.125,0.09375 0.125,0.09375zm0,0"/>
    </g>
   </g>
  </g>
  <g>
   <g>
    <g>
     <path fill="#ffffff" transform="translate(125.628 240.204)" d="m226.65312,91.44533c0,-1.80078 -0.85937,-3.38281 -2.57812,-4.75c-1.71094,-1.375 -3.57813,-2.0625 -5.60938,-2.0625c-0.58594,-0.66406 -1.46094,-1 -2.625,-1c-1.44922,0 -2.73437,0.65235 -3.85937,1.95313c-1.11719,1.29297 -1.9961,2.98047 -2.64063,5.0625c-0.63672,2.07422 -1.11719,4.28125 -1.4375,6.625c-0.3125,2.33594 -0.46875,4.71094 -0.46875,7.125c0,3.51172 1.25,6.6875 3.75,9.53125c2.5,2.83594 5.33203,4.25 8.5,4.25c0.8125,0 1.45313,-0.19531 1.92188,-0.57812c0.45703,0.0625 0.80468,0.09375 1.04687,0.09375c1.00781,0 1.85156,-0.25782 2.53125,-0.76563c0.6875,-0.50781 1.03125,-1.22656 1.03125,-2.15625c0,-0.75781 -0.27734,-1.38281 -0.82812,-1.875c-0.55469,-0.48828 -1.16407,-0.73438 -1.82813,-0.73438c-0.11719,0 -0.29687,0.02344 -0.54687,0.0625c-0.24219,0.04297 -0.44922,0.0625 -0.625,0.0625c-1.28125,0 -2.52735,-0.78906 -3.73438,-2.375c-1.21094,-1.58203 -1.8125,-3.14453 -1.8125,-4.6875c0,-4.21875 0.09375,-7.17968 0.28125,-8.89062c0.19531,-1.71875 0.64453,-3.34766 1.34375,-4.89063c0.375,-0.875 0.73438,-1.3125 1.07813,-1.3125c0.32031,0 0.90625,0.46485 1.75,1.39063c0.03125,0.69922 0.30468,1.3125 0.82812,1.84375c0.51953,0.52344 1.14453,0.78125 1.875,0.78125c0.72656,0 1.35156,-0.25781 1.875,-0.78125c0.51953,-0.53125 0.78125,-1.17188 0.78125,-1.92188zm0,0"/>
    </g>
   </g>
  </g>
  <g>
   <g>
    <g>
     <path fill="#ffffff" transform="translate(153.58 240.204)" d="m227.52812,112.33596c0.09375,0.63672 0.14063,1.11719 0.14063,1.4375l0,0.82812c0,0.75 -0.25782,1.39063 -0.76563,1.92188c-0.51172,0.51953 -1.14844,0.78125 -1.90625,0.78125c-0.75,0 -1.39062,-0.26172 -1.92187,-0.78125c-0.52344,-0.53125 -0.78125,-1.17188 -0.78125,-1.92188c0,-0.35156 -0.07813,-1.28906 -0.23438,-2.8125c-0.15625,-1.53125 -0.25,-2.53906 -0.28125,-3.03125c-1.19922,2.55469 -2.42187,4.54297 -3.67187,5.96875c-1.25,1.42969 -2.76172,2.14063 -4.53125,2.14063c-2.29297,0 -3.89063,-1.03516 -4.79688,-3.10938c-0.89844,-2.08203 -1.34375,-5.17578 -1.34375,-9.28125c0,-1.30078 0.10156,-2.95312 0.3125,-4.95312c0.21875,-2.00781 0.32813,-3.35156 0.32813,-4.03125c0,-0.8125 0.16406,-1.42969 0.5,-1.85938c0.34375,-0.4375 0.78906,-0.65625 1.34375,-0.65625c0.22656,0 0.47265,0.04297 0.73437,0.125c0.55078,-0.5 1.16016,-0.75 1.82813,-0.75c0.72656,0 1.35156,0.27344 1.875,0.8125c0.53125,0.54297 0.79687,1.17188 0.79687,1.89063c0,4.04297 0.20313,8.8125 0.60938,14.3125c1.53906,-1.45703 2.8164,-3.5 3.82812,-6.125c1.01953,-2.63281 1.53125,-5.28906 1.53125,-7.96875c0,-0.71875 0.26563,-1.33594 0.79688,-1.85938c0.53906,-0.53125 1.17578,-0.79687 1.90625,-0.79687c0.72656,0 1.35156,0.26562 1.875,0.79687c0.51953,0.52344 0.78125,1.14063 0.78125,1.85938l0,0.625c0.38281,2.375 0.57812,4.39062 0.57812,6.04687c0,2.9375 0.00781,4.7461 0.03125,5.42188c0.03125,1.71094 0.17578,3.36719 0.4375,4.96875zm0,0"/>
    </g>
   </g>
  </g>
  <g>
   <g>
    <g>
     <path fill="#ffffff" transform="translate(182.535 240.204)" d="m225.60625,94.85158c0.125,0.3125 0.1875,0.66407 0.1875,1.04688c0,1.27344 -0.61719,2.125 -1.84375,2.5625c-2.69922,0.90625 -5.66407,3.51172 -8.89063,7.8125c-0.21094,3.02344 -0.71875,6.05859 -1.53125,9.10937c-0.14844,0.61719 -0.47656,1.10938 -0.98437,1.48438c-0.5,0.375 -1.02735,0.5625 -1.57813,0.5625c-0.67969,0 -1.27344,-0.22656 -1.78125,-0.67188c-0.5,-0.44531 -0.80859,-1.0039 -0.92187,-1.67187c-0.53125,-0.72656 -0.79688,-1.87891 -0.79688,-3.45313c0,-0.92578 0.03125,-2.5664 0.09375,-4.92187c0.0625,-2.35156 0.09375,-3.57813 0.09375,-3.67188l-0.1875,-7.10937c-0.05469,-1.07031 0.12891,-1.94531 0.54688,-2.625c0.42578,-0.6875 1.04687,-1.03125 1.85937,-1.03125c0.78125,0 1.30078,0.01562 1.5625,0.04687c0.8125,0.02344 1.50781,0.19532 2.09375,0.51563c1.01953,0.55469 1.53125,2.10937 1.53125,4.67187c1.59375,-2.44531 3.32031,-3.97265 5.1875,-4.57812c0.69531,-0.23828 1.33594,-0.35938 1.92188,-0.35938c0.875,0 1.6289,0.19922 2.26562,0.59375c0.63281,0.39844 1.02344,0.96094 1.17188,1.6875zm0,0"/>
    </g>
   </g>
  </g>
  <g>
   <g>
    <g>
     <path fill="#ffffff" transform="translate(207.871 240.204)" d="m215.93437,106.66408c0.03125,0.61719 0.10156,1.15235 0.21875,1.60938c0.11328,0.61719 0.31641,1.14062 0.60938,1.57812c0.22656,0.34375 0.73828,0.70313 1.53125,1.07813c0.75,0.4375 1.38281,0.6875 1.90625,0.75c0.75781,0.05469 1.17968,0.07812 1.26562,0.07812c0.09375,-0.08203 0.25391,-0.17968 0.48438,-0.29687l0.26562,-0.21875c0.40625,-0.28906 0.88281,-0.4375 1.4375,-0.4375c0.98828,0 1.75781,0.39062 2.3125,1.17187c0.28906,0.40625 0.4375,0.89063 0.4375,1.45313c0,0.96094 -0.39844,1.71484 -1.1875,2.26562l-0.29687,0.21875l-0.65625,0.4375c-0.64844,0.40625 -1.40235,0.64844 -2.26563,0.73438c-0.17969,0.03125 -0.45312,0.04688 -0.82812,0.04688c-0.26172,0 -0.77344,-0.03125 -1.53125,-0.09375c-0.08594,-0.03125 -0.21485,-0.04688 -0.39063,-0.04688c-0.40625,0.23828 -0.85937,0.35938 -1.35937,0.35938l-0.73438,0c-0.375,0 -0.96875,-0.03125 -1.78125,-0.09375c-0.76172,-0.03125 -1.65234,-0.25 -2.67187,-0.65626c-1.07422,-0.375 -2.07422,-1.01562 -3,-1.92187c-0.96094,-0.89453 -1.60157,-1.87891 -1.92188,-2.95313c-0.23047,-0.84375 -0.34375,-1.64453 -0.34375,-2.40625l0.03125,-2.3125c0,-1.03906 -0.01172,-1.6914 -0.03125,-1.95312c-0.0625,-0.69531 0.10938,-1.90625 0.51563,-3.625c0.40625,-1.6875 0.79687,-2.9375 1.17187,-3.75c0.35156,-0.72656 0.67578,-1.32031 0.96875,-1.78125c0.25781,-0.4375 0.5625,-0.84766 0.90625,-1.23438c0.53125,-0.60156 1.12891,-1.03515 1.79688,-1.29687c0.4375,-0.20703 0.98828,-0.3125 1.65625,-0.3125c0.17578,-0.11328 0.30468,-0.1875 0.39062,-0.21875c0.58203,-0.25781 1.04688,-0.40625 1.39063,-0.4375l1.65625,-0.17188c0.09375,-0.03125 0.26953,-0.03125 0.53125,0c0.25781,0.0625 0.40625,0.07813 0.4375,0.04688l0.04687,0l0.34375,0.07812c0.19531,0.09375 0.3125,0.125 0.34375,0.09375c0.03125,0 0.14844,0.04297 0.35938,0.125l0.34375,0.1875l0.29687,0.17188c0.14453,0.11719 0.25,0.17187 0.3125,0.17187c1.10156,0.58594 1.98828,1.38282 2.65625,2.39063c0.64453,0.9375 1.08203,1.94531 1.3125,3.01562c0.17578,0.8125 0.26563,1.69922 0.26563,2.65625c0,1.21875 -0.04688,2.00782 -0.14063,2.35938c-0.02344,0.46875 -0.16797,0.94922 -0.4375,1.4375c-0.3125,0.66797 -0.76172,1.12109 -1.34375,1.35937c-0.58594,0.26172 -1.13672,0.39063 -1.65625,0.39063l-3.48437,0l-1.96875,-0.04688l-0.17188,0zm0.39063,-5.35937l1.75,0.03125l1.6875,0c0,-0.69531 -0.04297,-1.27344 -0.125,-1.73438c-0.08594,-0.32031 -0.2461,-0.6875 -0.48438,-1.09375c-0.16797,-0.22656 -0.42969,-0.46093 -0.78125,-0.70312l-0.48437,-0.21875c-0.08594,0.03125 -0.21094,0.05859 -0.375,0.07812c-0.15625,0.01172 -0.27735,0.01563 -0.35938,0.01563l-0.21875,0.26562c-0.32422,0.46094 -0.57031,1.15625 -0.73437,2.09375c-0.0625,0.26172 -0.125,0.6836 -0.1875,1.26563l0.3125,0zm0,0"/>
    </g>
   </g>
  </g>
  <g>
   <g>
    <g>
     <path fill="#ffffff" transform="translate(235.562 240.204)" d="m223.95,98.94533c1.375,0.875 2.45703,2.15235 3.25,3.82813c0.80078,1.66797 1.20312,3.40234 1.20312,5.20312l0,2.04688c0,1.01172 -0.10547,1.76562 -0.3125,2.26562c-0.19922,0.49219 -0.75,1.23047 -1.65625,2.21875c-1.96875,2.38282 -4.64062,3.57813 -8.01562,3.57813c-2.17969,0 -3.57422,-0.78906 -4.1875,-2.35938c-1.33594,-0.01953 -2.46875,-0.47265 -3.40625,-1.35937c-0.92969,-0.89453 -1.625,-2.08203 -2.09375,-3.5625c-0.46094,-1.47656 -0.79297,-2.98828 -1,-4.53125c-0.19922,-1.53906 -0.29688,-3.21094 -0.29688,-5.01563c0,-1.75 0.00391,-3.14453 0.01563,-4.1875c0.00781,-1.05078 0.0664,-2.28515 0.17187,-3.70312c0.10156,-1.42578 0.23828,-2.5625 0.40625,-3.40625c0.17578,-0.84375 0.42578,-1.73438 0.75,-2.67188c0.32031,-0.94531 0.71094,-1.67578 1.17188,-2.1875c0.46875,-0.50781 1.05468,-0.92968 1.76562,-1.26562c0.71875,-0.33203 1.52344,-0.5 2.42188,-0.5c0.75781,0 1.375,0.23047 1.84375,0.6875c0.51953,-0.14453 1.00781,-0.21875 1.46875,-0.21875c2.00781,0 3.82031,0.9375 5.4375,2.8125c1.61328,1.875 2.42187,4.10937 2.42187,6.70312c0,2.17969 -0.45312,4.05469 -1.35937,5.625zm-7.54688,-9.64062c-0.16797,3.11719 -0.25,6.05469 -0.25,8.8125l0,0.34375c1.36328,-0.51953 2.38281,-1.22266 3.0625,-2.10938c0.6875,-0.88281 1.03125,-1.82031 1.03125,-2.8125c0,-0.98828 -0.34375,-1.875 -1.03125,-2.65625c-0.67969,-0.78906 -1.61719,-1.3164 -2.8125,-1.57812zm6.64063,20.98437l0,-2.3125c0,-0.82031 -0.19532,-1.70312 -0.57813,-2.64062c-0.375,-0.94531 -0.88281,-1.59375 -1.51562,-1.9375c-0.32422,-0.20703 -1.1836,-0.3125 -2.57813,-0.3125c-0.49219,0 -1.20312,0.03125 -2.14062,0.09375c0.23828,4.41797 0.64453,7.35156 1.21875,8.79687l2.1875,0.65625c1.36328,-0.3125 2.5,-1.09375 3.40625,-2.34375zm0,0"/>
    </g>
   </g>
  </g>
  <g>
   <g>
    <g>
     <path fill="#ffffff" transform="translate(265.258 240.204)" d="m227.52812,112.33596c0.09375,0.63672 0.14063,1.11719 0.14063,1.4375l0,0.82812c0,0.75 -0.25782,1.39063 -0.76563,1.92188c-0.51172,0.51953 -1.14844,0.78125 -1.90625,0.78125c-0.75,0 -1.39062,-0.26172 -1.92187,-0.78125c-0.52344,-0.53125 -0.78125,-1.17188 -0.78125,-1.92188c0,-0.35156 -0.07813,-1.28906 -0.23438,-2.8125c-0.15625,-1.53125 -0.25,-2.53906 -0.28125,-3.03125c-1.19922,2.55469 -2.42187,4.54297 -3.67187,5.96875c-1.25,1.42969 -2.76172,2.14063 -4.53125,2.14063c-2.29297,0 -3.89063,-1.03516 -4.79688,-3.10938c-0.89844,-2.08203 -1.34375,-5.17578 -1.34375,-9.28125c0,-1.30078 0.10156,-2.95312 0.3125,-4.95312c0.21875,-2.00781 0.32813,-3.35156 0.32813,-4.03125c0,-0.8125 0.16406,-1.42969 0.5,-1.85938c0.34375,-0.4375 0.78906,-0.65625 1.34375,-0.65625c0.22656,0 0.47265,0.04297 0.73437,0.125c0.55078,-0.5 1.16016,-0.75 1.82813,-0.75c0.72656,0 1.35156,0.27344 1.875,0.8125c0.53125,0.54297 0.79687,1.17188 0.79687,1.89063c0,4.04297 0.20313,8.8125 0.60938,14.3125c1.53906,-1.45703 2.8164,-3.5 3.82812,-6.125c1.01953,-2.63281 1.53125,-5.28906 1.53125,-7.96875c0,-0.71875 0.26563,-1.33594 0.79688,-1.85938c0.53906,-0.53125 1.17578,-0.79687 1.90625,-0.79687c0.72656,0 1.35156,0.26562 1.875,0.79687c0.51953,0.52344 0.78125,1.14063 0.78125,1.85938l0,0.625c0.38281,2.375 0.57812,4.39062 0.57812,6.04687c0,2.9375 0.00781,4.7461 0.03125,5.42188c0.03125,1.71094 0.17578,3.36719 0.4375,4.96875zm0,0"/>
    </g>
   </g>
  </g>
  <g>
   <g>
    <g>
     <path fill="#ffffff" transform="translate(294.213 240.204)" d="m225.60625,94.85158c0.125,0.3125 0.1875,0.66407 0.1875,1.04688c0,1.27344 -0.61719,2.125 -1.84375,2.5625c-2.69922,0.90625 -5.66407,3.51172 -8.89063,7.8125c-0.21094,3.02344 -0.71875,6.05859 -1.53125,9.10937c-0.14844,0.61719 -0.47656,1.10938 -0.98437,1.48438c-0.5,0.375 -1.02735,0.5625 -1.57813,0.5625c-0.67969,0 -1.27344,-0.22656 -1.78125,-0.67188c-0.5,-0.44531 -0.80859,-1.0039 -0.92187,-1.67187c-0.53125,-0.72656 -0.79688,-1.87891 -0.79688,-3.45313c0,-0.92578 0.03125,-2.5664 0.09375,-4.92187c0.0625,-2.35156 0.09375,-3.57813 0.09375,-3.67188l-0.1875,-7.10937c-0.05469,-1.07031 0.12891,-1.94531 0.54688,-2.625c0.42578,-0.6875 1.04687,-1.03125 1.85937,-1.03125c0.78125,0 1.30078,0.01562 1.5625,0.04687c0.8125,0.02344 1.50781,0.19532 2.09375,0.51563c1.01953,0.55469 1.53125,2.10937 1.53125,4.67187c1.59375,-2.44531 3.32031,-3.97265 5.1875,-4.57812c0.69531,-0.23828 1.33594,-0.35938 1.92188,-0.35938c0.875,0 1.6289,0.19922 2.26562,0.59375c0.63281,0.39844 1.02344,0.96094 1.17188,1.6875zm0,0"/>
    </g>
   </g>
  </g>
  <g>
   <g>
    <g>
     <path fill="#ffffff" transform="translate(319.549 240.204)" d="m226.79375,103.74221c0.03125,0.52344 0.04687,1.4375 0.04687,2.75c0,2.4375 -0.0625,5.05469 -0.1875,7.84375c-0.02344,0.73047 -0.30859,1.33594 -0.85937,1.8125c-0.55469,0.48047 -1.15235,0.71875 -1.79688,0.71875c-0.84375,0 -1.52344,-0.28125 -2.03125,-0.84375c-0.5,-0.57031 -0.72656,-1.25 -0.67187,-2.03125c0.11328,-2.1875 0.17187,-4.48438 0.17187,-6.89063c0,-2.20703 -0.07812,-3.78515 -0.23437,-4.73437c-0.15625,-0.94531 -0.48438,-1.59375 -0.98438,-1.9375c-1.44922,0.875 -3.0625,2.46094 -4.84375,4.75c0.23828,3.23047 0.35938,4.88672 0.35938,4.96875c0,0.21094 -0.01172,0.46484 -0.03125,0.76562c-0.01172,0.30469 -0.02735,0.73047 -0.04688,1.28125c-0.01172,0.55469 -0.01562,1.10547 -0.01562,1.65625l-0.48438,2.45313c-0.60547,0.92578 -1.38672,1.39063 -2.34375,1.39063c-0.84375,0 -1.57812,-0.25 -2.20312,-0.75c-0.625,-0.48829 -1.04297,-1.14063 -1.25,-1.95313c-0.03125,-0.17578 -0.05469,-0.26953 -0.0625,-0.28125c-0.01172,-0.01953 -0.02735,-0.06641 -0.04688,-0.14063c-0.01172,-0.07031 -0.03125,-0.14843 -0.0625,-0.23437c-0.03125,-0.08203 -0.09375,-0.27344 -0.1875,-0.57813c-0.08594,-0.3125 -0.18359,-0.70312 -0.29687,-1.17187c-0.86719,-3.16406 -1.29688,-6.76953 -1.29688,-10.8125c0,-1.96875 0.00781,-3.50781 0.03125,-4.625c0.0625,-1.26953 0.32031,-2.34766 0.78125,-3.23438c0.46875,-0.89453 1.125,-1.45703 1.96875,-1.6875c0.35156,-0.05078 0.60156,-0.07812 0.75,-0.07812c0.34375,0 0.64453,0.05859 0.90625,0.17187c0.28906,-0.0625 0.625,-0.09375 1,-0.09375c0.72656,0 1.36719,0.26172 1.92188,0.78125c0.51953,0.53125 0.78125,1.15625 0.78125,1.875c0,0.58594 -0.15625,1.07813 -0.46875,1.48438c1.42578,-1.50781 3.03906,-2.58203 4.84375,-3.21875c0.8125,0 1.53125,0.03906 2.15625,0.10937c0.625,0.07422 1.16406,0.24219 1.625,0.5c0.46875,0.26172 0.85937,0.5 1.17187,0.71875c0.32031,0.21875 0.59375,0.60157 0.8125,1.14063c0.21875,0.53125 0.39063,0.99609 0.51563,1.39062c0.13281,0.38672 0.23828,1.01563 0.3125,1.89063c0.07031,0.875 0.125,1.60547 0.15625,2.1875c0.03125,0.57422 0.0625,1.46094 0.09375,2.65625zm0,0"/>
    </g>
   </g>
  </g>
  <path stroke="#000" d="m296.98846,370.64047l191.2579,0" fill="#ffffff" stroke-linecap="round"/>
  <path stroke="#000" d="m296.60955,316.3121l50.26949,0" fill="#ffffff" stroke-linecap="round"/>
  <path stroke="#000" d="m438.40269,316.3121l50.26949,0" fill="none" stroke-linecap="round"/>
  <g clip-path="url(#svg_1)">
   <path d="m453.19609,263.87893l-71.91016,-14.60938l72.28516,-14.8125c2.55859,-0.52343 4.44531,-2.07812 4.14062,-3.46093c-0.30468,-1.38282 -2.66796,-2.00782 -5.21484,-1.41016l-78.18359,18.26563l-3.00391,-0.60938c-0.4375,-0.38672 -1.15234,-0.44141 -1.48828,0.21875c-1.28516,2.5 0.15625,4.38281 0.60547,6.90234c0.48437,2.67969 -2.28906,4.51563 -1.70703,7.26954c0.23047,1.07421 1.18359,1.69921 1.55078,2.64843c0.8125,2.09375 -0.23438,3.6211 -0.44922,5.61328c-0.27344,2.5 2.14453,4.46875 2.26562,6.79297l1.96875,0c-0.08593,-1.40234 -0.74609,-2.53515 -1.45703,-3.9414c-1.57031,-3.08594 1.35157,-5.38282 0.10938,-8.33985c-0.64063,-1.53906 -2.32422,-2.3164 -1.92969,-4.33984c0.23047,-1.17969 1.29297,-2.23828 1.68359,-3.39844c0.60938,-1.80469 -0.4414,-3.65625 -0.95312,-5.39844l0.96875,-0.19531c0.18359,1.32031 0.80078,2.60156 1.07422,4.10938c0.47656,2.67968 -2.29297,4.51953 -1.70703,7.26953c0.22656,1.07422 1.17968,1.69922 1.54687,2.64844c0.8125,2.09375 -0.23047,3.62109 -0.44922,5.60937c-0.24218,2.20703 1.60938,3.99219 2.13672,5.97656l1.98438,0c-0.23828,-1.05078 -0.77344,-1.99609 -1.34766,-3.12109c-1.56641,-3.08984 1.35547,-5.38281 0.11719,-8.34375c-0.64453,-1.53516 -2.32422,-2.31641 -1.9336,-4.33594c0.23047,-1.18359 1.29297,-2.24219 1.6836,-3.39844c0.77734,-2.30078 -1.14844,-4.67968 -1.20703,-6.80468l0.22656,-0.04297l2.15234,0.5c0.13282,1.41406 0.81641,2.76172 1.10547,4.36719c0.47656,2.67968 -2.29297,4.51953 -1.70703,7.26953c0.22656,1.07422 1.17969,1.69922 1.55078,2.64843c0.8125,2.08985 -0.23437,3.6211 -0.45312,5.61329c-0.22657,2.08203 1.41797,3.79296 2.04297,5.64843l1.98828,0c-0.26563,-0.92187 -0.7461,-1.78906 -1.25391,-2.79687c-1.57031,-3.08985 1.35156,-5.37891 0.11328,-8.34375c-0.64453,-1.53125 -2.32422,-2.31641 -1.92969,-4.33594c0.22657,-1.18359 1.28907,-2.24219 1.67969,-3.39844c0.70703,-2.08593 -0.8125,-4.24218 -1.14844,-6.20703l73.38282,17.14453c2.54297,0.59375 4.90625,-0.03125 5.20703,-1.41015c0.30859,-1.38282 -1.57813,-2.9375 -4.13672,-3.46094zm-11.94922,20.25c-4.16406,15.22266 -15.17969,27.61328 -29.53516,33.66016l-39.80859,0c-14.35547,-6.04688 -25.36719,-18.4375 -29.53125,-33.66016c-0.74219,-2.71484 1.28516,-5.39453 4.10156,-5.39453l90.67188,0c2.8164,0 4.84375,2.67969 4.10156,5.39453" fill="#D43D3D"/>
  </g>
  <g fill="#D43D3D">
   <g>
    <g>
     <path transform="translate(99.058 184.307)" d="m209.12187,113.16408c0.00781,0.21875 0.03906,0.41407 0.09375,0.57813c0.03906,0.23047 0.11328,0.42187 0.21875,0.57812c0.08203,0.125 0.26563,0.25782 0.54688,0.39063c0.28125,0.15625 0.51562,0.24609 0.70312,0.26562c0.26953,0.02344 0.42188,0.03125 0.45313,0.03125c0.03125,-0.03125 0.08593,-0.0664 0.17187,-0.10937l0.09375,-0.07813c0.15625,-0.10156 0.33203,-0.15625 0.53125,-0.15625c0.35156,0 0.63281,0.14063 0.84375,0.42188c0.10156,0.15625 0.15625,0.33594 0.15625,0.53125c0,0.34375 -0.14844,0.62109 -0.4375,0.82812l-0.10937,0.07813l-0.23438,0.15625c-0.23047,0.14844 -0.50781,0.23438 -0.82812,0.26563c-0.0625,0.00781 -0.16407,0.01562 -0.29688,0.01562c-0.09375,0 -0.27734,-0.01172 -0.54687,-0.03125c-0.03125,-0.01172 -0.08594,-0.01562 -0.15625,-0.01562c-0.14844,0.08203 -0.3086,0.125 -0.48438,0.125l-0.26562,0c-0.13672,0 -0.35547,-0.01172 -0.65625,-0.03125c-0.27344,-0.01172 -0.59375,-0.08985 -0.96875,-0.23438c-0.38672,-0.13281 -0.75,-0.36719 -1.09375,-0.70313c-0.34375,-0.32031 -0.57422,-0.67968 -0.6875,-1.07812c-0.08594,-0.30078 -0.125,-0.58594 -0.125,-0.85938l0.01562,-0.84375c0,-0.38281 -0.00781,-0.625 -0.01562,-0.71875c-0.02344,-0.25 0.03906,-0.6875 0.1875,-1.3125c0.14453,-0.61328 0.28515,-1.0664 0.42187,-1.35937c0.125,-0.26953 0.24219,-0.48828 0.35938,-0.65625c0.09375,-0.15625 0.20312,-0.30078 0.32812,-0.4375c0.1875,-0.21875 0.39844,-0.37891 0.64063,-0.48438c0.16406,-0.07031 0.36718,-0.10937 0.60937,-0.10937c0.0625,-0.03906 0.10938,-0.06641 0.14063,-0.07813c0.20703,-0.09375 0.3789,-0.14453 0.51562,-0.15625l0.59375,-0.0625c0.03125,-0.00781 0.09375,-0.00781 0.1875,0c0.09375,0.02344 0.14453,0.02735 0.15625,0.01563l0.01563,0l0.125,0.03125c0.08203,0.03125 0.1289,0.04297 0.14062,0.03125c0.00781,0 0.05078,0.01562 0.125,0.04687l0.125,0.0625l0.10938,0.0625c0.05078,0.04297 0.08593,0.0625 0.10937,0.0625c0.40625,0.21875 0.72656,0.51172 0.96875,0.875c0.22656,0.34375 0.38281,0.71094 0.46875,1.09375c0.0625,0.29297 0.09375,0.61719 0.09375,0.96875c0,0.44922 -0.01562,0.73438 -0.04687,0.85938c-0.01172,0.16797 -0.0625,0.33984 -0.15625,0.51562c-0.11719,0.24219 -0.27735,0.40625 -0.48438,0.5c-0.21875,0.09375 -0.42187,0.14063 -0.60937,0.14063l-1.26563,0l-0.71875,-0.01563l-0.0625,0zm0.15625,-1.95312l0.625,0.01562l0.625,0c0,-0.25 -0.01562,-0.46093 -0.04687,-0.64062c-0.03125,-0.11328 -0.09375,-0.24219 -0.1875,-0.39063c-0.0625,-0.08203 -0.15625,-0.16406 -0.28125,-0.25l-0.17188,-0.07812c-0.03125,0.01172 -0.07812,0.02344 -0.14062,0.03125c-0.05469,0 -0.09375,0 -0.125,0l-0.07813,0.09375c-0.11719,0.16797 -0.20312,0.42187 -0.26562,0.76562c-0.03125,0.09375 -0.0586,0.2461 -0.07813,0.45313l0.125,0zm0,0"/>
    </g>
   </g>
  </g>
  <g fill="#D43D3D">
   <g>
    <g>
     <path transform="translate(108.327 184.307)" d="m208.16875,116.82033c1.08203,-0.13281 1.625,-0.82812 1.625,-2.07812c0,-0.66406 -0.07422,-1.25 -0.21875,-1.75c-0.13672,-0.50781 -0.29688,-0.88281 -0.48438,-1.125c-0.17969,-0.25 -0.33984,-0.52344 -0.48437,-0.82813c-0.13672,-0.3125 -0.20313,-0.625 -0.20313,-0.9375c0,-0.03125 0.00391,-0.05468 0.01563,-0.07812c0.07031,-0.00781 0.32031,-0.01563 0.75,-0.01563c0.26953,0 0.5,-0.09765 0.6875,-0.29687c0.1875,-0.19531 0.28125,-0.42578 0.28125,-0.6875c0,-0.25781 -0.09375,-0.48438 -0.28125,-0.67188c-0.1875,-0.19531 -0.41797,-0.29687 -0.6875,-0.29687c-0.32422,0 -0.65235,0.01172 -0.98438,0.03125c-0.11719,-0.03125 -0.23437,-0.04688 -0.35937,-0.04688c-0.41797,0 -0.82032,0.1875 -1.20313,0.5625c-0.38672,0.375 -0.57812,0.76172 -0.57812,1.15625c0,0.55469 0.10937,1.1875 0.32812,1.90625c0.21875,0.71875 0.4375,1.3711 0.65625,1.95313c0.21875,0.57422 0.32813,0.96094 0.32813,1.15625c0,0.03125 -0.01172,0.08984 -0.03125,0.17187l-0.15625,0.01563c-0.27344,0.03125 -0.49219,0.14844 -0.65625,0.34375c-0.15625,0.19922 -0.23438,0.41406 -0.23438,0.64062c0,0.625 0.39453,0.93751 1.1875,0.93751c0.14453,-0.00001 0.37891,-0.01954 0.70313,-0.06251zm0,0"/>
    </g>
   </g>
  </g>
  <g fill="#D43D3D">
   <g>
    <g>
     <path transform="translate(114.807 184.307)" d="m211.66875,108.66408c0.28906,0.1875 0.4375,0.44532 0.4375,0.76563c0,0.16797 -0.04297,0.34375 -0.125,0.53125c-0.21875,0.39844 -0.79688,0.66406 -1.73438,0.79687l-0.1875,0.03125c-0.01172,0.23047 -0.05469,0.76563 -0.125,1.60938c-0.03125,0.51172 -0.04687,0.8125 -0.04687,0.90625c0,0.67969 0.1289,1.13672 0.39062,1.375c0.28125,0.07422 0.50781,0.19922 0.6875,0.375c0.17578,0.16797 0.26563,0.35547 0.26563,0.5625c0,0.34375 -0.11719,0.64062 -0.34375,0.89062c-0.23047,0.24219 -0.49219,0.35938 -0.78125,0.35938c-0.75,0 -1.27344,-0.17188 -1.5625,-0.51563c-0.67969,-0.8125 -1,-1.96093 -0.96875,-3.45312c0.01953,-0.16406 0.03906,-0.76563 0.0625,-1.79688l-0.64063,0.09375c-0.26172,0.03125 -0.49219,-0.05078 -0.6875,-0.25c-0.1875,-0.20703 -0.27734,-0.44531 -0.26562,-0.71875c-0.01172,-0.25 0.07812,-0.46093 0.26562,-0.64062c0.1875,-0.1875 0.42578,-0.30078 0.71875,-0.34375l0.65625,-0.10938l0,-1.3125c0,-0.44531 0.01953,-0.75 0.0625,-0.90625l0.03125,-0.125c0.0625,-0.23828 0.20313,-0.42968 0.42188,-0.57812c0.14453,-0.33203 0.39453,-0.52344 0.75,-0.57813c0.03125,-0.00781 0.08203,-0.01562 0.15625,-0.01562c0.19531,0 0.38281,0.0625 0.5625,0.1875c0.21875,0.17969 0.34375,0.39844 0.375,0.65625l0.01562,0.10937c0.01953,0.16797 0.03125,0.28907 0.03125,0.35938c0.03125,0.59375 0.04688,1.03125 0.04688,1.3125l0,0.5l0.14062,-0.01563c0.61328,-0.10156 0.95313,-0.15625 1.01563,-0.15625c0.16406,0 0.28906,0.03125 0.375,0.09375zm0,0"/>
    </g>
   </g>
  </g>
  <g fill="#D43D3D">
   <g>
    <g>
     <path transform="translate(123.253 184.307)" d="m213.23125,106.46096c0.05078,0.54297 0.07812,1.22656 0.07812,2.04687c0,1.24219 -0.07812,2.57813 -0.23437,4.01563l-0.28125,2.84375c-0.05469,0.53125 -0.07813,0.86719 -0.07813,1c0.03125,0.03125 0.0625,0.07031 0.09375,0.10937c0.03125,0.03125 0.05078,0.0586 0.0625,0.07813c0.00781,0.01172 0.01953,0.02734 0.03125,0.04687c0.00781,0.02344 0.01563,0.04297 0.01563,0.0625c0.00781,0.02344 0.01562,0.04688 0.01562,0.07813c0,0.19531 -0.20312,0.36328 -0.60937,0.5c-0.40625,0.14453 -0.77344,0.21875 -1.09375,0.21875c-0.46094,0 -0.69922,-0.23437 -0.71875,-0.70313c-0.35547,0.12501 -0.67969,0.18751 -0.96875,0.18751c-1.05469,0 -1.90235,-0.26954 -2.54688,-0.81251c-0.63672,-0.55078 -0.95312,-1.32031 -0.95312,-2.3125c0,-1.03906 0.15625,-1.89843 0.46875,-2.57812c0.3125,-0.67578 0.80078,-1.25 1.46875,-1.71875c0.1875,-0.13281 0.38281,-0.19531 0.59375,-0.1875c0.33203,-0.23828 0.72656,-0.35938 1.1875,-0.35938c0.33203,0 0.6914,0.07032 1.07812,0.20313c0,-0.76953 -0.00781,-1.37891 -0.01562,-1.82813c0,-0.4375 0.03125,-0.78125 0.09375,-1.03125c0.0625,-0.25 0.19531,-0.44531 0.40625,-0.59375c0.17578,-0.38281 0.48437,-0.57812 0.92187,-0.57812c0.3125,0 0.55078,0.12109 0.71875,0.35937c0.17578,0.24219 0.26563,0.5586 0.26563,0.95313zm-4.15625,7.32812c0.15625,0.32422 0.59765,0.58594 1.32812,0.78125c0.0625,-0.03125 0.16406,-0.05468 0.3125,-0.07812l0.0625,-0.95313c0.01953,-0.51953 0.03906,-1.22656 0.0625,-2.125c-0.29297,-0.28125 -0.67187,-0.4414 -1.14062,-0.48437c-0.0625,0.02344 -0.14844,0.125 -0.25,0.3125c-0.09375,0.1875 -0.16797,0.38672 -0.21875,0.59375l-0.15625,1.95312zm1.4375,2.9375zm0,0.03125l0.01562,-0.01562l-0.01562,0.01562zm0,0"/>
    </g>
   </g>
  </g>
  <g fill="#D43D3D">
   <g>
    <g>
     <path transform="translate(242.89 184.307)" d="m208.09062,107.80471l-0.07812,-0.10938l0,-0.125c0,-0.13281 0.05468,-0.27343 0.17187,-0.42187c0.07031,-0.07031 0.16016,-0.10938 0.26563,-0.10938c0.26953,0 0.42578,0.17188 0.46875,0.51563c0.01953,0.125 0.03125,0.30859 0.03125,0.54687c0,0.63672 -0.13672,1.29688 -0.40625,1.98438c-0.27344,0.6875 -0.60547,1.38672 -1,2.09375c-0.38672,0.69922 -0.64063,1.21875 -0.76563,1.5625c-0.02344,0.04297 -0.09375,0.26172 -0.21875,0.65625l-0.21875,0.625c-0.09375,0.28125 -0.15234,0.45312 -0.17187,0.51562c-0.01172,0.05469 -0.03907,0.15235 -0.07813,0.29688c-0.03125,0.11719 -0.04687,0.21875 -0.04687,0.3125c0,0.5 0.26562,0.87891 0.79687,1.14063c0.39453,0.17578 1,0.26562 1.8125,0.26562l1.48438,0c0.22656,0 0.3789,0.00391 0.45312,0.01563l0.20313,0.01562c0.28125,0.01953 0.52343,-0.07031 0.73437,-0.26562c0.21875,-0.1875 0.32813,-0.42188 0.32813,-0.70313c0,-0.25 -0.08985,-0.46875 -0.26563,-0.65625c-0.17969,-0.1875 -0.38672,-0.29688 -0.625,-0.32813l-0.20312,-0.01562c-0.11719,-0.00781 -0.32422,-0.01563 -0.625,-0.01563l-0.25,0c0.07031,-0.17578 0.19531,-0.53515 0.375,-1.07812c0.17578,-0.55078 0.29687,-0.97266 0.35937,-1.26563c0.17578,-0.78125 0.29688,-1.44531 0.35938,-2c0.03906,-0.39453 0.07812,-0.67968 0.10937,-0.85937c0.0625,-0.53906 0.09375,-1.10156 0.09375,-1.6875l0,-0.9375c0,-0.53125 -0.08594,-1 -0.25,-1.40625c-0.17969,-0.42578 -0.50781,-0.76563 -0.98437,-1.01563c-0.46875,-0.25 -0.96094,-0.375 -1.46875,-0.375c-0.6875,0 -1.26172,0.26563 -1.71875,0.79688c-0.46094,0.53125 -0.6875,1.13281 -0.6875,1.79687c0,0.40625 0.07031,0.75 0.21875,1.03125l0.09375,0.15625c0.19531,0.32422 0.48828,0.48438 0.875,0.48438c0.16406,0 0.3164,-0.03516 0.45312,-0.10938c0.28125,-0.17578 0.44141,-0.39843 0.48438,-0.67187c0,-0.28906 -0.03907,-0.50781 -0.10938,-0.65625zm0,0"/>
    </g>
   </g>
  </g>
  <g fill="#D43D3D">
   <g>
    <g>
     <path transform="translate(251.082 184.307)" d="m209.23125,117.19534c0.125,0.03906 0.26562,0.0625 0.42187,0.0625c0.19531,0 0.37891,-0.04297 0.54688,-0.125c0.14453,-0.05469 0.25781,-0.13672 0.34375,-0.25c0.11328,-0.11329 0.17187,-0.19141 0.17187,-0.23438c0.17578,-0.23828 0.36328,-0.57813 0.5625,-1.01563c0.40625,-0.9375 0.61719,-2.3789 0.64063,-4.32812c0.00781,-0.15625 0.01562,-0.36719 0.01562,-0.64063c0,-0.25 -0.00781,-0.42187 -0.01562,-0.51562l0.0625,-0.0625c0.20703,-0.20703 0.33593,-0.34375 0.39062,-0.40625l0.1875,-0.25c0.15625,-0.17578 0.23438,-0.38281 0.23438,-0.625c0,-0.25 -0.09375,-0.47266 -0.28125,-0.67188c-0.17969,-0.19531 -0.40235,-0.29687 -0.67188,-0.29687c-0.10547,0 -0.21094,0.01562 -0.3125,0.04687l-0.29687,-1c-0.25,-0.90625 -0.75782,-1.48828 -1.51563,-1.75c-0.15625,-0.05078 -0.30859,-0.07812 -0.45312,-0.07812c-0.40625,0 -0.76563,0.125 -1.07813,0.375c-0.03125,-0.03125 -0.09375,-0.06641 -0.1875,-0.10938c-0.125,-0.0625 -0.26172,-0.09375 -0.40625,-0.09375c-0.39844,0 -0.69922,0.17188 -0.90625,0.51563l-0.07812,0.17187c-0.17969,0.33594 -0.32422,0.84375 -0.4375,1.53125c-0.08594,0.46875 -0.125,1.44922 -0.125,2.9375l0,1.42188c0,0.80469 0.0039,1.38672 0.01562,1.75c0.00781,1.11719 0.45313,2.07031 1.32813,2.85937c0.08203,0.07422 0.17578,0.16407 0.28125,0.26563c0.11328,0.10547 0.1875,0.16797 0.21875,0.1875l0.17187,0.17188c0.19531,0.1875 0.42969,0.28125 0.70313,0.28125c0.15625,0 0.3125,-0.04297 0.46875,-0.125zm-0.5625,-8.37501c0.0625,-0.10156 0.09765,-0.1875 0.10937,-0.25l0.125,-0.40625c0.0625,-0.23828 0.15625,-0.5039 0.28125,-0.79687l0.10938,-0.20313c0.03906,0.11719 0.0664,0.21094 0.07812,0.28125c0.25781,0.83594 0.4375,1.50782 0.53125,2.01563l-0.8125,0.90625c-0.09375,0.09375 -0.23437,0.26172 -0.42187,0.5l0,-2.04688zm1.25,3.5625c-0.07422,1.16797 -0.21485,1.9961 -0.42188,2.48438l-0.04687,0.10937c-0.03125,-0.03906 -0.08594,-0.09765 -0.15625,-0.17187c-0.02344,-0.03125 -0.05469,-0.06641 -0.09375,-0.10938c-0.04297,-0.05078 -0.07422,-0.08593 -0.09375,-0.10937c-0.08594,-0.25781 -0.15625,-0.60156 -0.21875,-1.03125c0.25781,-0.28906 0.60156,-0.67969 1.03125,-1.17188zm0,0"/>
    </g>
   </g>
  </g>
  <g fill="#D43D3D">
   <g>
    <g>
     <path transform="translate(260.209 184.307)" d="m208.09062,107.80471l-0.07812,-0.10938l0,-0.125c0,-0.13281 0.05468,-0.27343 0.17187,-0.42187c0.07031,-0.07031 0.16016,-0.10938 0.26563,-0.10938c0.26953,0 0.42578,0.17188 0.46875,0.51563c0.01953,0.125 0.03125,0.30859 0.03125,0.54687c0,0.63672 -0.13672,1.29688 -0.40625,1.98438c-0.27344,0.6875 -0.60547,1.38672 -1,2.09375c-0.38672,0.69922 -0.64063,1.21875 -0.76563,1.5625c-0.02344,0.04297 -0.09375,0.26172 -0.21875,0.65625l-0.21875,0.625c-0.09375,0.28125 -0.15234,0.45312 -0.17187,0.51562c-0.01172,0.05469 -0.03907,0.15235 -0.07813,0.29688c-0.03125,0.11719 -0.04687,0.21875 -0.04687,0.3125c0,0.5 0.26562,0.87891 0.79687,1.14063c0.39453,0.17578 1,0.26562 1.8125,0.26562l1.48438,0c0.22656,0 0.3789,0.00391 0.45312,0.01563l0.20313,0.01562c0.28125,0.01953 0.52343,-0.07031 0.73437,-0.26562c0.21875,-0.1875 0.32813,-0.42188 0.32813,-0.70313c0,-0.25 -0.08985,-0.46875 -0.26563,-0.65625c-0.17969,-0.1875 -0.38672,-0.29688 -0.625,-0.32813l-0.20312,-0.01562c-0.11719,-0.00781 -0.32422,-0.01563 -0.625,-0.01563l-0.25,0c0.07031,-0.17578 0.19531,-0.53515 0.375,-1.07812c0.17578,-0.55078 0.29687,-0.97266 0.35937,-1.26563c0.17578,-0.78125 0.29688,-1.44531 0.35938,-2c0.03906,-0.39453 0.07812,-0.67968 0.10937,-0.85937c0.0625,-0.53906 0.09375,-1.10156 0.09375,-1.6875l0,-0.9375c0,-0.53125 -0.08594,-1 -0.25,-1.40625c-0.17969,-0.42578 -0.50781,-0.76563 -0.98437,-1.01563c-0.46875,-0.25 -0.96094,-0.375 -1.46875,-0.375c-0.6875,0 -1.26172,0.26563 -1.71875,0.79688c-0.46094,0.53125 -0.6875,1.13281 -0.6875,1.79687c0,0.40625 0.07031,0.75 0.21875,1.03125l0.09375,0.15625c0.19531,0.32422 0.48828,0.48438 0.875,0.48438c0.16406,0 0.3164,-0.03516 0.45312,-0.10938c0.28125,-0.17578 0.44141,-0.39843 0.48438,-0.67187c0,-0.28906 -0.03907,-0.50781 -0.10938,-0.65625zm0,0"/>
    </g>
   </g>
  </g>
  <g fill="#D43D3D">
   <g>
    <g>
     <path transform="translate(268.4 184.307)" d="m208.09062,107.80471l-0.07812,-0.10938l0,-0.125c0,-0.13281 0.05468,-0.27343 0.17187,-0.42187c0.07031,-0.07031 0.16016,-0.10938 0.26563,-0.10938c0.26953,0 0.42578,0.17188 0.46875,0.51563c0.01953,0.125 0.03125,0.30859 0.03125,0.54687c0,0.63672 -0.13672,1.29688 -0.40625,1.98438c-0.27344,0.6875 -0.60547,1.38672 -1,2.09375c-0.38672,0.69922 -0.64063,1.21875 -0.76563,1.5625c-0.02344,0.04297 -0.09375,0.26172 -0.21875,0.65625l-0.21875,0.625c-0.09375,0.28125 -0.15234,0.45312 -0.17187,0.51562c-0.01172,0.05469 -0.03907,0.15235 -0.07813,0.29688c-0.03125,0.11719 -0.04687,0.21875 -0.04687,0.3125c0,0.5 0.26562,0.87891 0.79687,1.14063c0.39453,0.17578 1,0.26562 1.8125,0.26562l1.48438,0c0.22656,0 0.3789,0.00391 0.45312,0.01563l0.20313,0.01562c0.28125,0.01953 0.52343,-0.07031 0.73437,-0.26562c0.21875,-0.1875 0.32813,-0.42188 0.32813,-0.70313c0,-0.25 -0.08985,-0.46875 -0.26563,-0.65625c-0.17969,-0.1875 -0.38672,-0.29688 -0.625,-0.32813l-0.20312,-0.01562c-0.11719,-0.00781 -0.32422,-0.01563 -0.625,-0.01563l-0.25,0c0.07031,-0.17578 0.19531,-0.53515 0.375,-1.07812c0.17578,-0.55078 0.29687,-0.97266 0.35937,-1.26563c0.17578,-0.78125 0.29688,-1.44531 0.35938,-2c0.03906,-0.39453 0.07812,-0.67968 0.10937,-0.85937c0.0625,-0.53906 0.09375,-1.10156 0.09375,-1.6875l0,-0.9375c0,-0.53125 -0.08594,-1 -0.25,-1.40625c-0.17969,-0.42578 -0.50781,-0.76563 -0.98437,-1.01563c-0.46875,-0.25 -0.96094,-0.375 -1.46875,-0.375c-0.6875,0 -1.26172,0.26563 -1.71875,0.79688c-0.46094,0.53125 -0.6875,1.13281 -0.6875,1.79687c0,0.40625 0.07031,0.75 0.21875,1.03125l0.09375,0.15625c0.19531,0.32422 0.48828,0.48438 0.875,0.48438c0.16406,0 0.3164,-0.03516 0.45312,-0.10938c0.28125,-0.17578 0.44141,-0.39843 0.48438,-0.67187c0,-0.28906 -0.03907,-0.50781 -0.10938,-0.65625zm0,0"/>
    </g>
   </g>
  </g>
 </g>
</svg>